<svg xmlns="http://www.w3.org/2000/svg" width="182.808" height="282.937" viewBox="0 0 182.808 282.937">
  <g id="Group_4992" data-name="Group 4992" transform="translate(-1061 -58.157)">
    <path id="Path_4521" data-name="Path 4521" d="M1220.492,150.771l7.541-2.37,6.679-1.508,4.956-5.387,4.159-.506,4.12.506,5.295,6.895v3.878h4.094l6.679,2.155,2.155,2.37,2.8,6.679,4.525,4.956v3.016l-1.939,2.586-14.221,1.508-7.757-1.508-27.148-14.652Z" transform="translate(-38 -61)" fill="#fff"/>
    <g id="Group_4714" data-name="Group 4714" transform="translate(717.888 -153.796)">
      <path id="Path_2296" data-name="Path 2296" d="M525.92,494.89H343.144V214.146c-.063-1.038-.12-2.069.731-2.193H525.92Z" transform="translate(0 0)" fill="none"/>
      <path id="Path_2297" data-name="Path 2297" d="M414.122,219.25c-.275,2.407-3.888,1.473-3.659,4.386,3.652,1.954,7.091,4.12,9.505,7.311,4.079-3.638-2.237-8.1-.731-13.892-5.572-1.183-6.629,2.145-10.966,2.195.108-1.814.135-3.549-1.462-3.657-.681,1.756-2.937,1.936-2.193,5.117C408.251,223.241,410.889,219.457,414.122,219.25Zm3.652,6.58c-2.294.345-1.93-1.968-3.652-2.193.426-1.522,1.534-2.363,2.192-3.657C417.4,221.332,417.714,223.453,417.774,225.83Z" transform="translate(37.227 2.209)" fill="#fff"/>
      <path id="Path_2298" data-name="Path 2298" d="M386.881,242.117c.008-1.938-.406-4.3,1.461-4.386a13.227,13.227,0,0,0,5.849,8.042c.8-2.633,5.914-3.945,4.388-6.58-1.3-2.116-5.154-1.671-6.581-3.655,2.99-9.454,21.366-7.062,15.354,5.117,1.968,1.91,6.8,1.91,8.773,0,.63-3.554-2.094-3.755-1.462-7.311,1.112-6.674,13.567-6.655,13.89.731.183,3.352-3.31,3.029-2.926,6.58.01,1.453,2,.93,1.462,2.924,5.951.3,5.693-5.958,5.85-9.5,4.719,5.228-.362,13.461-.731,19.739-.259,4.417,2.9,10.739-3.655,10.968-.36,3.284.37,5.479.731,8.042,6.878-3.742,7.192-8.94,6.578-17.546,2.336.627,2.262-1.15,3.657-1.464-1.579-8.167,2.987-22.482-8.043-21.2-2.682-5.845-8.656-8.4-15.351-10.235-.358-2.307,1.318-2.582.729-5.119-4.415-.361.236,3.8-2.192,5.119-1.282-.67-3.647-.252-4.386-1.464,1.125-1.112,1.3-5.011-1.462-4.386-.844,2.376,2.233,4.5,0,5.85-4.69,1.853-3.94-3.919-5.119-4.388.6,8.032-9.917,10.654-13.89,5.85,2.749-1.981,18.2-.959,10.237-6.581-2.037-.329.572,3.986-1.462,3.655-2.5-2.748-8.421-5.53-13.161-3.655,2.825,6-1.265,6.644,2.924,11.7-2.3-.353-.548,3.352-2.193,3.655-1.152-.066-.572-1.864-2.193-1.462C380.529,233.788,381.262,242.336,386.881,242.117ZM392,228.958c.619-1.244-2.278,5.767-3.655,7.311C387.387,234.55,390.112,230.266,392,228.958Z" transform="translate(23.526 2.735)" fill="#fff"/>
      <path id="Path_2299" data-name="Path 2299" d="M398.323,220.889c-.011-1.938.4-4.3-1.462-4.386C397.3,218.01,395.68,221.583,398.323,220.889Z" transform="translate(32.554 2.761)" fill="#fff"/>
      <path id="Path_2300" data-name="Path 2300" d="M414.128,224.173c-.059-2.376-.376-4.5-1.461-5.85-.657,1.293-1.766,2.135-2.192,3.657C412.2,222.2,411.834,224.519,414.128,224.173Z" transform="translate(40.872 3.865)"/>
      <path id="Path_2301" data-name="Path 2301" d="M411.491,226.138c-2.653-3.863-8.67.892-7.312,5.849,3.535,1.538,8.059-.164,9.5-2.924-2.8-2.333-6.546,1.38-8.04,0C406.65,227.145,408.325,225.9,411.491,226.138Z" transform="translate(36.932 7.749)" fill="#fff"/>
      <path id="Path_2302" data-name="Path 2302" d="M390.454,228.775c.447,4.266,6.729,4.153,9.505,2.193.844-4.946-4.51-6.912-8.042-5.117-.863,3.037,5.776-1.483,5.847,2.193C395.284,228.243,391.837,227.478,390.454,228.775Z" transform="translate(28.724 8.036)" fill="#fff"/>
      <path id="Path_2303" data-name="Path 2303" d="M367.555,243.826c5.039,1.141,2.658-5.14,4.386-7.311,1.5,1.179,1.7,3.667,1.462,6.581-1.136,1.056-2.849,1.536-4.386,2.192-.2,2.638,2.892,1.984,2.924,4.388q-2.723-.164-3.655,1.462c2.306,1.837,5.309,2.977,7.311,5.117,1.9-2.272.027-5.439-.731-7.311,4.891-.392,1.4-4.716,2.193-8.774,2.612-3.115,1.6-10.654-.731-13.159-6.25-.652-14.748,1.477-16.815,7.311C362.354,237.332,369.333,236.2,367.555,243.826Z" transform="translate(9.951 9.068)" fill="#fff"/>
      <path id="Path_2304" data-name="Path 2304" d="M376.641,231.285c.67-3.107-1.753-3.122-4.388-2.924C372.351,230.7,373.911,231.577,376.641,231.285Z" transform="translate(17.681 9.913)" fill="#fff"/>
      <path id="Path_2305" data-name="Path 2305" d="M382.488,241.212c-.061,3.231.125,6.213,3.657,5.85-.614-4.992-3.544-7.666-4.388-12.43,1.531.455,2.747,3.75,3.657.731-2.476-3.434-9.409-6.162-13.161-2.193C373.892,237.438,380.669,239.448,382.488,241.212Z" transform="translate(17.681 11.682)" fill="#fff"/>
      <path id="Path_2306" data-name="Path 2306" d="M382.792,242.664c2.3.564,6.359-2.7,5.849-7.311-4.271,1.1-4.507-1.83-6.58-2.924C379.978,235.618,383.51,238.507,382.792,242.664Z" transform="translate(23.227 12.424)" fill="#fff"/>
      <path id="Path_2307" data-name="Path 2307" d="M430.543,232.884c-3.97,2.122-10.59,1.6-10.968,7.311C424.863,239.391,429.251,237.685,430.543,232.884Z" transform="translate(46.393 12.7)" fill="#fff"/>
      <path id="Path_2308" data-name="Path 2308" d="M357.17,237.534c.736,1.459,3.234,1.155,2.926,3.655-4.77,2.786-5.33,9.782-8.773,13.892,4.1,2.073,9.6-3.7,5.847-7.311,3.622-1.032,7.193.643,10.968,1.462-1.216,1.952-5.045,1.292-6.58,2.924-.363,4.505,2.069,6.215,4.385,8.042,1.253-3.7-3.408-3.687-1.461-5.849,2.131,1.038,3.257,3.08,2.923,6.58-.934,4.094-9.5,3.1-6.58,8.773,10.712-1.155,11.777-15.285,9.505-27.051-1.152-1.285-3.916-.958-5.117-2.192,1.832-1.335,4.814-1.522,5.849-3.657-5.574-5.558-16.4-3.4-19.009,3.657C354.593,240.318,354.829,237.873,357.17,237.534Z" transform="translate(4.982 13.167)" fill="#fff"/>
      <path id="Path_2309" data-name="Path 2309" d="M389.663,235.626c-2.306,1.594-1.237,6.562-1.462,10.237,2.5,1.4,4.385,3.413,8.043,3.655.36-3.821-9.822-6.123-4.388-13.161C390.922,236.316,390.844,235.42,389.663,235.626Z" transform="translate(27.322 14.344)" fill="#fff"/>
      <path id="Path_2310" data-name="Path 2310" d="M381.026,245.575c1.538-4.864-2.964-9.589-8.773-9.505C372.782,241.635,378.087,242.419,381.026,245.575Z" transform="translate(17.681 14.632)" fill="#fff"/>
      <path id="Path_2311" data-name="Path 2311" d="M432.893,245.574c-.856-5.243,4.247-4.529,5.119-8.042-.156-.821-.813-1.139-1.462-1.464C433.839,237.647,426.072,243.364,432.893,245.574Z" transform="translate(52.816 14.632)" fill="#fff"/>
      <path id="Path_2312" data-name="Path 2312" d="M395.2,241.419c4.036.137,5.831-1.967,8.043-3.655-4.447,1.014-9.21-1.483-10.966-.729C393.466,238.28,393.482,240.7,395.2,241.419Z" transform="translate(29.829 15.13)" fill="#fff"/>
      <path id="Path_2313" data-name="Path 2313" d="M430.087,236.98c-4.732.384-6.824,3.41-10.966,4.385C421.962,246,431.6,240.915,430.087,236.98Z" transform="translate(46.118 15.185)" fill="#fff"/>
      <path id="Path_2314" data-name="Path 2314" d="M356.762,239.771c-4.374-1.29-9.807,5.322-8.04,10.237C353.231,248.425,355.483,244.585,356.762,239.771Z" transform="translate(3.196 16.779)" fill="#fff"/>
      <path id="Path_2315" data-name="Path 2315" d="M388.112,239.254c-2.8.371-5.673.664-5.849,3.657,1.73,1.923,2.9,4.407,5.849,5.117,1.661-.532,2.185-2.2,2.924-3.655C389,243.73,388.612,241.436,388.112,239.254Z" transform="translate(23.755 16.565)" fill="#fff"/>
      <path id="Path_2316" data-name="Path 2316" d="M431.9,252.87c-1.019-6.135,5.371-4.864,7.312-8.042.116-2.311.024-4.414-1.462-5.119-1.78,1.391-1.321,5.019-3.657,5.85-2.582-1.408-4,.238-5.849,1.462C427.83,250.611,429.2,252.409,431.9,252.87Z" transform="translate(51.611 16.841)" fill="#fff"/>
      <path id="Path_2317" data-name="Path 2317" d="M407.513,243.786c-.721-4.414-6.946-4.206-10.233-2.193C397.2,246.1,405.548,247.763,407.513,243.786Z" transform="translate(32.866 17.151)" fill="#fff"/>
      <path id="Path_2318" data-name="Path 2318" d="M380.322,249.393c1.584-4.216-4.02-7.046-7.311-8.773a4.771,4.771,0,0,0-.731,3.655C375.29,245.652,377.2,248.135,380.322,249.393Z" transform="translate(17.654 17.393)" fill="#fff"/>
      <path id="Path_2319" data-name="Path 2319" d="M421.421,248.367c2.656-2.706,8.588-2.135,9.5-6.58C426.332,239.648,420.673,242.732,421.421,248.367Z" transform="translate(47.473 17.688)" fill="#fff"/>
      <path id="Path_2320" data-name="Path 2320" d="M394.873,241.532c-2.074,3.6,0,8.556,2.195,10.235,4.049-3.784,11.006.117,16.815-1.462-.517-3.93.577-6.245,1.461-8.773-5.387,2.561-7.367,6.9-13.158,5.117C399.108,245.7,399.052,241.336,394.873,241.532Z" transform="translate(30.885 17.943)" fill="#fff"/>
      <path id="Path_2321" data-name="Path 2321" d="M420.42,244.464c.207-1.912-.267-3.144-2.192-2.924C418.021,243.452,418.495,244.684,420.42,244.464Z" transform="translate(45.549 17.936)" fill="#fff"/>
      <path id="Path_2322" data-name="Path 2322" d="M378.639,242.444c-.288,3.213.9,4.949,3.657,5.117C381.872,245.06,381.772,242.237,378.639,242.444Z" transform="translate(21.53 18.494)" fill="#fff"/>
      <path id="Path_2323" data-name="Path 2323" d="M364.518,244.26a54.152,54.152,0,0,0,8.042,11.7C374.229,250.494,369.126,245.846,364.518,244.26Z" transform="translate(12.988 19.602)" fill="#fff"/>
      <path id="Path_2324" data-name="Path 2324" d="M420.971,245.744c-1.152-.066-.572-1.865-2.192-1.462-1.708,3.623-1.978,10.182-.733,14.621,4.594-.035,4.386-4.873,5.117-8.773-2.421-.66-3.169,4.062-4.385,2.193C418.7,249.323,421.7,249.4,420.971,245.744Z" transform="translate(44.997 19.58)" fill="#fff"/>
      <path id="Path_2325" data-name="Path 2325" d="M371.136,245.185c-2.9,8.047,4.5,11.39,8.774,14.621,1.39-2.02.061-6.76,2.923-7.311a7.9,7.9,0,0,1,3.657,4.386,4.765,4.765,0,0,0-3.657.731c-.429,2.624.852,3.538,1.464,5.117,5.728-1.965,4.946-11.879.731-14.621C378.726,250.862,377.468,244.583,371.136,245.185Zm8.043,8.773c-3.213-.442-5.731-1.579-6.581-4.386C376.171,249.654,378.4,251.087,379.179,253.958Z" transform="translate(16.605 20.139)" fill="#fff"/>
      <path id="Path_2326" data-name="Path 2326" d="M390.485,245.17c-2.437,2.6-5.715.013-7.311.731,2.619,2.984,4.618,6.591,7.311,9.5a30.615,30.615,0,0,0,5.85-6.58C394.158,247.832,390.53,248.292,390.485,245.17Z" transform="translate(24.307 20.154)" fill="#fff"/>
      <path id="Path_2327" data-name="Path 2327" d="M446.954,261.29c2.264-5.591-7.34-5.217-8.774-9.5.943-2.712,4.6-2.714,4.388-6.58-2.712-.517-3.138,1.248-5.85.731a30.509,30.509,0,0,0-.729,8.773C440.775,255.771,440.958,261.439,446.954,261.29Z" transform="translate(56.301 20.118)" fill="#fff"/>
      <path id="Path_2328" data-name="Path 2328" d="M428.618,246.281c-3.286-1.975-6.144,1.9-5.849,5.849A6.774,6.774,0,0,0,428.618,246.281Z" transform="translate(48.318 20.505)" fill="#fff"/>
      <path id="Path_2329" data-name="Path 2329" d="M430.1,257.322c3.149-3.432,7.274-5.885,8.043-11.7C434.108,247.788,429.026,252.458,430.1,257.322Z" transform="translate(52.689 20.43)" fill="#fff"/>
      <path id="Path_2330" data-name="Path 2330" d="M378.379,252.286c-.784-2.871-3.008-4.3-6.581-4.386C372.648,250.707,375.166,251.845,378.379,252.286Z" transform="translate(17.405 21.81)"/>
      <path id="Path_2331" data-name="Path 2331" d="M447.915,254.71c.159-2.674,1-2.8,0-5.117-3.114.641-6.486-2.238-8.773,0C442.188,251.177,444.147,253.849,447.915,254.71Z" transform="translate(58.265 22.311)" fill="#fff"/>
      <path id="Path_2332" data-name="Path 2332" d="M356.526,255.114c1.5-.2,1.461-1.952,2.195-2.924-2.473-.209-3.087-2.275-5.119-2.924C353.531,252.26,353.7,255.012,356.526,255.114Z" transform="translate(6.357 22.639)" fill="#fff"/>
      <path id="Path_2333" data-name="Path 2333" d="M369.637,261.693c5.26-6,7.14-.668,10.966,3.657,1.3-1.383.532-4.83.731-7.312-5.251-3.279-11.983-5.076-16.816-8.773C365.133,254.5,371.069,254.413,369.637,261.693Z" transform="translate(12.988 22.639)" fill="#fff"/>
      <path id="Path_2334" data-name="Path 2334" d="M423.217,256.576c4.586,2.237,2.6,11.045,8.04,12.43.337-3.808,3.742-4.545,5.117-7.312-3.276-1.04-6.257,1.971-8.042,0,.938-2.229,4.38-1.955,4.386-5.117-1.748-.445-5.3.917-5.849-.731.513-3.143,5.582-1.727,4.386-6.58C426.553,249.68,424.647,252.891,423.217,256.576Z" transform="translate(48.603 22.639)" fill="#fff"/>
      <path id="Path_2335" data-name="Path 2335" d="M390,250.184c2.013,3.106,3.046,7.19,7.312,8.042,1.068-1.369.029-4.844,1.462-5.849.331,3.548,4.206,6.7,7.311,5.117C403.785,252.41,395.281,249.879,390,250.184Z" transform="translate(28.448 23.181)" fill="#fff"/>
      <path id="Path_2336" data-name="Path 2336" d="M408.426,258.509c2.65-1.493,3.463-4.822,3.654-8.773C406.673,249.052,404.949,256.511,408.426,258.509Z" transform="translate(38.534 22.898)" fill="#fff"/>
      <path id="Path_2337" data-name="Path 2337" d="M408.438,253.773c-1.139-1.541-2.712-2.651-5.849-2.193-1.075,1.064-1.075,4.786,0,5.849C406.111,257.783,407.631,256.134,408.438,253.773Z" transform="translate(35.598 23.98)" fill="#fff"/>
      <path id="Path_2338" data-name="Path 2338" d="M433.833,260.768c.472-2.238,2.145-7.071.729-8.773C432.909,253.221,430.65,259.294,433.833,260.768Z" transform="translate(54.07 24.295)" fill="#fff"/>
      <path id="Path_2339" data-name="Path 2339" d="M383.174,256.562c2.055,1.69,4.807-.6,4.386-3.655C384.8,252.824,383.629,254.338,383.174,256.562Z" transform="translate(24.307 24.846)" fill="#fff"/>
      <path id="Path_2340" data-name="Path 2340" d="M424.517,252.9c-3.221.435-4.727,2.587-5.852,5.117,2.515,1.385,1.636,6.167,4.388,7.312a13.668,13.668,0,0,0,3.655-6.581c-2.568-.429-2.4,3.456-4.388,1.462C422.02,256.747,424.816,256.376,424.517,252.9Z" transform="translate(45.841 24.847)" fill="#fff"/>
      <path id="Path_2341" data-name="Path 2341" d="M415.134,253.826c-1.56,2.69,3.723,3.3,2.926.731C417.924,253.474,416.291,253.887,415.134,253.826Z" transform="translate(43.523 25.389)" fill="#fff"/>
      <path id="Path_2342" data-name="Path 2342" d="M366,284.245c3.051-7.428,3.511-14.149,7.311-19.739-2.368-2.995-3.634-7.087-5.849-10.237-4.483,4.48,2.14,7.24,2.192,11.7-3.205.77-2.4-2.473-5.116-2.195-.8,4.218,2.868,3.957,2.193,8.043-2.122-.559-1.9-3.466-5.119-2.924-.182,4.814,3.594,5.667,4.388,9.5-3.207.77-2.4-2.473-5.119-2.193C360.751,280.72,362.762,283.095,366,284.245Z" transform="translate(10.776 25.675)" fill="#fff"/>
      <path id="Path_2343" data-name="Path 2343" d="M385.449,260.154c3,1.69,6.461-1.579,7.309-4.386C390.117,254.437,386.063,257.112,385.449,260.154Z" transform="translate(25.687 26.371)" fill="#fff"/>
      <path id="Path_2344" data-name="Path 2344" d="M412.063,255.191c-.222,1.706-1.562,3.151.731,3.655.01-1.453,1.994-.929,1.462-2.924C413.321,255.882,413.244,254.987,412.063,255.191Z" transform="translate(41.477 26.216)" fill="#fff"/>
      <path id="Path_2345" data-name="Path 2345" d="M377.908,256.1c-.877,6.7-.276,11.479-2.924,15.354,1.059,1.377,1.075,3.8,2.924,4.386,1.329-5.738,2.919-11.215,3.655-17.547C379.838,258.072,380.2,255.758,377.908,256.1Z" transform="translate(19.338 26.766)" fill="#fff"/>
      <path id="Path_2346" data-name="Path 2346" d="M392.777,265.927c-.125-4.754,4.192-5.068,5.116-8.774C393.923,254.643,386.254,264.6,392.777,265.927Z" transform="translate(28.596 27.179)" fill="#fff"/>
      <path id="Path_2347" data-name="Path 2347" d="M436.55,262.394c.982-1.069,1.5-5.789-.733-5.849C434.836,257.615,434.323,262.336,436.55,262.394Z" transform="translate(55.739 27.056)" fill="#fff"/>
      <path id="Path_2348" data-name="Path 2348" d="M416.062,264.312c-.911-4.449-5.116-5.607-8.773-7.312C407.633,262.019,412.353,262.657,416.062,264.312Z" transform="translate(38.939 27.332)" fill="#fff"/>
      <path id="Path_2349" data-name="Path 2349" d="M415.479,257c.458,2.225,1.626,3.739,4.39,3.657C419.684,258.166,418.3,256.863,415.479,257Z" transform="translate(43.908 27.328)" fill="#fff"/>
      <path id="Path_2350" data-name="Path 2350" d="M372.47,288.161c4.374-4.126-.522-11.84,5.119-16.083.032-2.225-1.544-2.842-2.195-4.386,2.384.19,3.52-.868,3.657-2.924-.1-3.31-3.255-3.57-2.926-7.312H372.47c-1.313,4.505,3.986,6.216,2.924,8.043-1.6-.389-4.729-1.769-5.117.731.734,1.978,4.5,4.719,3.655,5.849-2.937-.259-5.349.013-5.849,2.193,1.692,1.477,3.908,2.429,4.386,5.117-2.2,1.986-3.262-1.6-6.58-.731C365.423,284.487,373.086,282.186,372.47,288.161Z" transform="translate(13.808 27.608)" fill="#fff"/>
      <path id="Path_2351" data-name="Path 2351" d="M402.984,257.462c-6.334-.376-10.238,5.214-8.774,10.237C398.013,265.544,403.216,261.254,402.984,257.462Z" transform="translate(30.817 27.601)" fill="#fff"/>
      <path id="Path_2352" data-name="Path 2352" d="M401.829,257.471c1.165,4.063,7.362,10.524,9.505,8.774C411.657,262.739,408.041,256.875,401.829,257.471Z" transform="translate(35.626 27.592)" fill="#fff"/>
      <path id="Path_2353" data-name="Path 2353" d="M416.779,263.029c1.473-1.84-.4-5.008-2.923-5.119C412.381,259.75,414.261,262.92,416.779,263.029Z" transform="translate(42.608 27.884)" fill="#fff"/>
      <path id="Path_2354" data-name="Path 2354" d="M381.815,262.937c3.255.819,2.629-2.245,3.655-3.655Q381.563,259.031,381.815,262.937Z" transform="translate(23.473 28.707)" fill="#fff"/>
      <path id="Path_2355" data-name="Path 2355" d="M432.652,267.318c-2.076-3.183,3.99-3.54,2.926-8.042-16.234,2.828,4.61,19.1,2.924,3.655C434.951,262.793,436.2,267.456,432.652,267.318Z" transform="translate(52.325 28.713)" fill="#fff"/>
      <path id="Path_2356" data-name="Path 2356" d="M422.762,264.117c2.224-.456,3.737-1.624,3.655-4.386C424.191,260.186,422.68,261.354,422.762,264.117Z" transform="translate(48.325 28.989)" fill="#fff"/>
      <path id="Path_2357" data-name="Path 2357" d="M385.844,267.593c1.943-1.714,4.216-3.1,5.117-5.849C388.079,259.353,382.47,266.04,385.844,267.593Z" transform="translate(25.292 29.9)" fill="#fff"/>
      <path id="Path_2358" data-name="Path 2358" d="M412.211,269.143c-4.272-2.065-4.28-8.394-10.968-8.042.018,1.721-1.258,2.151-.729,4.386,2.421,2.209,8.125,1.133,8.042,5.849-2.351-.818-4.337-2-7.312-2.193,1.1,5.476,7.36,5.8,9.505,10.235C413.981,276.206,407.582,272.663,412.211,269.143Z" transform="translate(34.75 29.812)" fill="#fff"/>
      <path id="Path_2359" data-name="Path 2359" d="M417.756,261.12c-.013,2.452,0,4.873,2.924,4.386C420.7,263.054,420.68,260.631,417.756,261.12Z" transform="translate(45.288 29.793)" fill="#fff"/>
      <path id="Path_2360" data-name="Path 2360" d="M409.565,262.006q.5,6.078,6.58,6.58A7.682,7.682,0,0,0,409.565,262.006Z" transform="translate(40.32 30.369)" fill="#fff"/>
      <path id="Path_2361" data-name="Path 2361" d="M403.144,263.144c-4.965-2.783-5.124,4.942-9.5,5.117.128,2.309.513,4.361,2.923,4.386C396.677,267.4,403.274,268.636,403.144,263.144Z" transform="translate(30.657 30.693)" fill="#fff"/>
      <path id="Path_2362" data-name="Path 2362" d="M414.116,262.477c-.082,2.762,1.43,3.93,3.655,4.386C419.462,264.809,417.167,262.056,414.116,262.477Z" transform="translate(43.079 30.629)" fill="#fff"/>
      <path id="Path_2363" data-name="Path 2363" d="M389.616,269.209c2.695-.472,3.835-2.5,4.388-5.117C391.066,261.866,388.726,265.3,389.616,269.209Z" transform="translate(28.1 31.208)" fill="#fff"/>
      <path id="Path_2364" data-name="Path 2364" d="M425.624,263.371a9.082,9.082,0,0,0-1.462,6.58C426.737,270.45,428.664,263.753,425.624,263.371Z" transform="translate(49.119 31.197)" fill="#fff"/>
      <path id="Path_2365" data-name="Path 2365" d="M381.394,268.212c2.2.435,4.147-3.087,2.193-4.386C383.179,265.611,380.758,265.383,381.394,268.212Z" transform="translate(23.163 31.473)" fill="#fff"/>
      <path id="Path_2366" data-name="Path 2366" d="M422.6,263.852c-1.006.938-1.274,4.37.729,4.386C423.925,267.708,425.288,263.179,422.6,263.852Z" transform="translate(47.76 31.448)" fill="#fff"/>
      <path id="Path_2367" data-name="Path 2367" d="M408.655,265.665c1.224,3.649,3.2,6.543,7.311,7.311C414.941,269.442,411.4,265.1,408.655,265.665Z" transform="translate(39.768 32.559)" fill="#fff"/>
      <path id="Path_2368" data-name="Path 2368" d="M429.364,265.191c-2.015,2.127-3.432,4.852-2.924,9.5C429.162,273.742,431.312,268.382,429.364,265.191Z" transform="translate(50.496 32.302)" fill="#fff"/>
      <path id="Path_2369" data-name="Path 2369" d="M418.211,265.664c-.055,2.19,2.15,3.71,3.654,2.193C422.2,265.572,420.3,265.519,418.211,265.664Z" transform="translate(45.565 32.56)" fill="#fff"/>
      <path id="Path_2370" data-name="Path 2370" d="M385,273.606c3.148-.75,4.089-3.708,5.116-6.58C385.794,266.6,384.853,269.56,385,273.606Z" transform="translate(25.407 33.391)" fill="#fff"/>
      <path id="Path_2371" data-name="Path 2371" d="M414.576,267.013c-.247,3.173,2.015,3.835,4.39,4.386Q419.139,266.84,414.576,267.013Z" transform="translate(43.349 33.403)" fill="#fff"/>
      <path id="Path_2372" data-name="Path 2372" d="M401.585,271.121a40.659,40.659,0,0,0,13.158,10.235c.043-5.734-10.065-7.417-11.7-13.89-5.431,1.149-7.982,5.177-8.042,11.7C398.418,277.7,399.745,274.155,401.585,271.121Z" transform="translate(31.485 33.682)" fill="#fff"/>
      <path id="Path_2373" data-name="Path 2373" d="M432.055,267.466c-1.059,2.841-2.866,4.931-2.924,8.773C432.226,276.187,435.727,269.489,432.055,267.466Z" transform="translate(52.191 33.682)" fill="#fff"/>
      <path id="Path_2374" data-name="Path 2374" d="M391.75,277.171c.9-2.749,5.537-4.848,2.924-8.773C390.45,267.545,387.157,276.124,391.75,277.171Z" transform="translate(28.161 34.212)" fill="#fff"/>
      <path id="Path_2375" data-name="Path 2375" d="M381.481,285.647c-3.25-1.9-2.907-4.589-1.462-8.043-2.373-.424-3.4.5-5.116.731.845-1.833,2.911-2.447,2.924-5.117a5.159,5.159,0,0,0-2.924-4.386c-.516,2.168,1.526,6.89-2.195,5.849C372.708,280.78,377.464,286,381.481,285.647Z" transform="translate(17.957 34.51)" fill="#fff"/>
      <path id="Path_2376" data-name="Path 2376" d="M421.865,271.755a2.745,2.745,0,0,0-2.924-2.924c-.039.445-.106.864-.729.731C418.157,271.752,420.361,273.272,421.865,271.755Z" transform="translate(45.565 34.51)" fill="#fff"/>
      <path id="Path_2377" data-name="Path 2377" d="M384.306,269.286h-2.193a4.761,4.761,0,0,0-.731,3.655C383.436,272.8,384.5,271.67,384.306,269.286Z" transform="translate(23.175 34.786)" fill="#fff"/>
      <path id="Path_2378" data-name="Path 2378" d="M424.223,269.286c-.721,3.1.236,6.756-1.462,10.235C426.865,279.913,428.182,270.24,424.223,269.286Z" transform="translate(48.326 34.786)" fill="#fff"/>
      <path id="Path_2379" data-name="Path 2379" d="M409.109,269.741c.4,4.719,2.159,8.077,6.581,8.773C415.076,274.01,411.815,272.156,409.109,269.741Z" transform="translate(40.043 35.062)" fill="#fff"/>
      <path id="Path_2380" data-name="Path 2380" d="M417.8,276.955c1.568-2.282-1.036-5.447-3.655-5.849C413.721,274.7,415.091,276.493,417.8,276.955Z" transform="translate(43.052 35.89)" fill="#fff"/>
      <path id="Path_2381" data-name="Path 2381" d="M435,271.561c-.932,2.086-4.962,3.827-2.924,6.58C434.923,278.276,437.093,273.941,435,271.561Z" transform="translate(53.633 36.167)" fill="#fff"/>
      <path id="Path_2382" data-name="Path 2382" d="M360.877,272.926c.837,2.576,1.607,5.217,3.657,6.58C366.187,276.948,363.567,273.464,360.877,272.926Z" transform="translate(10.779 36.995)" fill="#fff"/>
      <path id="Path_2383" data-name="Path 2383" d="M385.48,272.926c-2.436.488-3.969,1.88-3.655,5.117C384.262,277.555,385.795,276.164,385.48,272.926Z" transform="translate(23.464 36.995)" fill="#fff"/>
      <path id="Path_2384" data-name="Path 2384" d="M386.652,284.625c5.479-1.444.175-8.895,2.193-11.7C383.5,273.509,387.089,280.46,386.652,284.625Z" transform="translate(25.946 36.995)" fill="#fff"/>
      <path id="Path_2385" data-name="Path 2385" d="M420.422,273.836h-2.192c-.2,1.666.175,2.749,1.462,2.924C419.923,275.774,420.734,275.366,420.422,273.836Z" transform="translate(45.546 37.547)" fill="#fff"/>
      <path id="Path_2386" data-name="Path 2386" d="M436.294,282.61c-1.139-5.039,2.675-5.124,2.924-8.774C436.066,274.055,431.458,281.317,436.294,282.61Z" transform="translate(55.263 37.547)" fill="#fff"/>
      <path id="Path_2387" data-name="Path 2387" d="M390,280.736c3.533-.37,6.083-1.719,5.852-5.85C392.871,273.219,390.472,277.551,390,280.736Z" transform="translate(28.448 37.96)" fill="#fff"/>
      <path id="Path_2388" data-name="Path 2388" d="M366.532,274.746c-.591,4,2.442,4.383,2.193,8.043-2.29.146-4.036-3.983-5.117-.731,1.388,1.779,3.266,3.069,2.924,6.58C372.779,286.17,374.166,276.634,366.532,274.746Z" transform="translate(12.436 38.099)" fill="#fff"/>
      <path id="Path_2389" data-name="Path 2389" d="M400.578,274.746c-1.73,2.171-5.109,2.69-5.119,6.581C398.734,281.454,404.229,276.751,400.578,274.746Z" transform="translate(31.761 38.099)" fill="#fff"/>
      <path id="Path_2390" data-name="Path 2390" d="M407.247,279.865c-.011-3.644-3.255-4.057-5.85-5.119C400.84,278.959,404.164,279.29,407.247,279.865Z" transform="translate(35.327 38.099)" fill="#fff"/>
      <path id="Path_2391" data-name="Path 2391" d="M414.958,281.327a8.7,8.7,0,0,0-5.849-6.581C409.448,278.551,411.816,280.326,414.958,281.327Z" transform="translate(40.043 38.099)" fill="#fff"/>
      <path id="Path_2392" data-name="Path 2392" d="M425.813,282.058c1.174-1.706,5.251-5.959,2.193-7.312C426.078,275.53,423.642,279.6,425.813,282.058Z" transform="translate(49.661 38.099)" fill="#fff"/>
      <path id="Path_2393" data-name="Path 2393" d="M418.549,278.082c-1.3-.651-1.861-2.042-4.388-1.464C413.2,279.719,418.232,280.566,418.549,278.082Z" transform="translate(43.035 39.151)" fill="#fff"/>
      <path id="Path_2394" data-name="Path 2394" d="M422.32,289.451c.2-3.173,2.878-10.98,0-12.43C421.34,281.722,417.342,286.494,422.32,289.451Z" transform="translate(46.574 39.479)" fill="#fff"/>
      <path id="Path_2395" data-name="Path 2395" d="M432.7,277.764c-.162-.57-.612-.852-1.462-.733-1.5,2.648-3.736,4.549-4.386,8.043C430.874,284.707,431.924,281.368,432.7,277.764Z" transform="translate(50.811 39.469)" fill="#fff"/>
      <path id="Path_2396" data-name="Path 2396" d="M419.95,280.4c.04-.447.109-.866.729-.731v-1.462c-.445-.042-.865-.109-.729-.731h-1.462c-.042.445-.109.865-.733.731v1.462c.447.042.868.109.733.731Z" transform="translate(45.289 39.756)" fill="#fff"/>
      <path id="Path_2397" data-name="Path 2397" d="M376.738,285.243c-.681-3.707-1.729-7.046-5.85-7.311C371.67,281.536,372.718,284.875,376.738,285.243Z" transform="translate(16.853 40.032)" fill="#fff"/>
      <path id="Path_2398" data-name="Path 2398" d="M385.658,277.935a4.1,4.1,0,0,0-2.924.731C382.246,281.835,386.41,280.919,385.658,277.935Z" transform="translate(24.016 40.029)" fill="#fff"/>
      <path id="Path_2399" data-name="Path 2399" d="M380.212,278.387c-1.39,1.377-.088,3.8,1.462,4.386C383.771,281.183,382.677,279.088,380.212,278.387Z" transform="translate(22.152 40.308)" fill="#fff"/>
      <path id="Path_2400" data-name="Path 2400" d="M397.4,286.429a21.841,21.841,0,0,0,6.578-8.042C399.965,278.925,395.876,282.719,397.4,286.429Z" transform="translate(32.742 40.308)" fill="#fff"/>
      <path id="Path_2401" data-name="Path 2401" d="M396.579,278.842a7.688,7.688,0,0,0-6.581,6.58C393.279,284.315,395.037,281.684,396.579,278.842Z" transform="translate(28.448 40.584)" fill="#fff"/>
      <path id="Path_2402" data-name="Path 2402" d="M405.926,278.886c-.116,3.543,2.985,1.56,4.386.731.292,3.607,1.594,6.2,4.386,7.311C414.517,281.5,412.331,278.084,405.926,278.886Z" transform="translate(38.11 40.54)" fill="#fff"/>
      <path id="Path_2403" data-name="Path 2403" d="M402.285,279.319c.651,2.27.752,5.095,3.655,5.117C407.994,281.848,405.624,278.8,402.285,279.319Z" transform="translate(35.903 40.838)" fill="#fff"/>
      <path id="Path_2404" data-name="Path 2404" d="M433.42,279.309c-1.11,2.3-2.436,4.386-2.924,7.311,3.361-.54,3.779-4.022,5.117-6.58C434.68,280,434.6,279.1,433.42,279.309Z" transform="translate(53.019 40.849)" fill="#fff"/>
      <path id="Path_2405" data-name="Path 2405" d="M413.205,280.483c-.053,2.19,2.15,3.71,3.654,2.193a2.743,2.743,0,0,0-2.923-2.924C413.9,280.2,413.827,280.616,413.205,280.483Z" transform="translate(42.528 41.136)" fill="#fff"/>
      <path id="Path_2406" data-name="Path 2406" d="M425.737,280.289c-3.021-1.258-3.919,3.313-2.192,4.386C423.149,282.085,426.133,282.877,425.737,280.289Z" transform="translate(48.274 41.33)" fill="#fff"/>
      <path id="Path_2407" data-name="Path 2407" d="M376.15,286.516c1.541-1.139,2.65-2.711,2.192-5.849C375.808,280.367,374.625,285.179,376.15,286.516Z" transform="translate(19.634 41.683)" fill="#fff"/>
      <path id="Path_2408" data-name="Path 2408" d="M377.29,288c-4.727.808-3.67-8-7.312-5.849C370.772,284.956,374.091,292.413,377.29,288Z" transform="translate(16.301 42.388)" fill="#fff"/>
      <path id="Path_2409" data-name="Path 2409" d="M386.108,281.572c-2.058.137-3.117,1.271-2.926,3.655C385.239,285.091,386.3,283.955,386.108,281.572Z" transform="translate(24.299 42.241)" fill="#fff"/>
      <path id="Path_2410" data-name="Path 2410" d="M395.785,282.027c-2.208,1.934-5.023,3.262-4.385,8.042C394.388,289.41,398.911,284.122,395.785,282.027Z" transform="translate(29.242 42.517)" fill="#fff"/>
      <path id="Path_2411" data-name="Path 2411" d="M378.85,349.743c1.763-10.849,12.25-23.693,13.159-33.632.644-7.031-4.332-29.493-7.312-33.629-.509,5.219-7.449,6.117-8.771,12.428-1.162,5.542,1.485,13.384.731,20.471-.942,8.832-4.232,16.374-2.195,23.4.551,1.885,5.41-.535,5.119,2.193-1.348,2.553-4.573,3.228-8.774,2.923-.922,2-.72,5.13-2.193,6.581C370.968,354.2,375.583,351.162,378.85,349.743Zm7.311-40.21c1.986,2.847-.2,13.834-2.195,17.546C382.288,321.733,386.662,316.134,386.16,309.533Z" transform="translate(15.472 42.793)" fill="#fff"/>
      <path id="Path_2412" data-name="Path 2412" d="M389.308,282.507q-3.434-.511-2.924,2.924C388.675,285.773,388.445,283.593,389.308,282.507Z" transform="translate(26.215 42.768)" fill="#fff"/>
      <path id="Path_2413" data-name="Path 2413" d="M405.767,286.614q3.432.508,2.923-2.924A2.077,2.077,0,1,0,405.767,286.614Z" transform="translate(37.538 43.048)" fill="#fff"/>
      <path id="Path_2414" data-name="Path 2414" d="M398.837,291.158c-1.189-4.068,5.828-5.379,2.193-7.311C398.679,284.544,392.177,290.362,398.837,291.158Z" transform="translate(32.04 43.621)" fill="#fff"/>
      <path id="Path_2415" data-name="Path 2415" d="M402.478,284.592c1.616.09.31,3.1.731,4.386a3.491,3.491,0,0,0-3.654,3.655c2.985,1.88,3.156-4.369,7.309-3.655C407.92,285.452,404.793,282.327,402.478,284.592Z" transform="translate(34.246 43.607)" fill="#fff"/>
      <path id="Path_2416" data-name="Path 2416" d="M425.063,287.5c2.686.7,2.908-3.591.731-3.655A4.757,4.757,0,0,0,425.063,287.5Z" transform="translate(49.679 43.621)" fill="#fff"/>
      <path id="Path_2417" data-name="Path 2417" d="M419,284.757c-3.348,30.676,2.944,51.443,16.816,65.068,2.143-.3.585-4.29,2.193-5.119,2.524.646.651,5.686,4.388,5.119,1.194-4.989-4.934-8.612-8.773-10.966C426.406,321.794,437.59,291.947,419,284.757Z" transform="translate(45.507 44.173)" fill="#fff"/>
      <path id="Path_2418" data-name="Path 2418" d="M426.542,346.349a94,94,0,0,0-5.852-10.235c-.672-13.061-5.992-25.954,1.462-35.824-.477,5.368-3.255,13.73-.729,17.546,3.418-7.306,3.842-17.607,3.657-28.513-3.08-.154-1.117,4.733-2.927,5.849.084-3.98-1.112-6.684-2.192-9.5-8.6.321-10,7.828-9.505,15.352-2.089-2.052-1.081-7.2-4.385-8.042-1.959,4.978-2.966,17.5,2.193,19.74.945-2.955,1.61-6.188,2.924-8.774,1.632,11.628-4.666,19.212-2.195,29.244,1.167-.538-.167-3.578,2.195-2.924a27.4,27.4,0,0,1-1.462,16.085c3-.072,5.992-.143,8.04.731a15.76,15.76,0,0,0,.733-6.581c-2.264-.731-2.841,3.892-4.385,1.462,2.556-10.171-5.307-16.692-1.464-23.394C414.834,329.812,418.208,343.68,426.542,346.349Z" transform="translate(37.234 44.725)" fill="#fff"/>
      <path id="Path_2419" data-name="Path 2419" d="M428.514,285.693c-.842.864-.826,2.584-.729,4.386q3.9.251,3.654-3.655C430.45,286.195,430.043,285.383,428.514,285.693Z" transform="translate(51.346 44.699)" fill="#fff"/>
      <path id="Path_2420" data-name="Path 2420" d="M384.241,299.915c.909-3.268,1.814-11.1-1.462-12.428C383.469,291.427,381.232,298.294,384.241,299.915Z" transform="translate(23.971 45.829)" fill="#fff"/>
      <path id="Path_2421" data-name="Path 2421" d="M373.357,306.577c-.267-6.313,1.2-14.361-2.924-16.815C370.737,296.04,369.548,303.806,373.357,306.577Z" transform="translate(16.577 47.21)" fill="#fff"/>
      <path id="Path_2422" data-name="Path 2422" d="M430.775,333.808c-.591-13.142,1.931-31.155-2.192-43.136C429.181,304.922,422.092,324.632,430.775,333.808Z" transform="translate(50.547 47.762)" fill="#fff"/>
      <path id="Path_2423" data-name="Path 2423" d="M399.636,343.414c2.378.847,7.955,1.372,10.235,0,1.491-15.878-.281-35.331-4.386-49.716a18.334,18.334,0,0,0-7.311-.731C399.448,311.47,393.966,328.73,399.636,343.414Z" transform="translate(32.703 49.122)" fill="#fff"/>
      <path id="Path_2424" data-name="Path 2424" d="M380.508,299.318c.5,6.6-3.872,12.2-2.195,17.546C380.3,313.152,382.494,302.165,380.508,299.318Z" transform="translate(21.124 53.008)"/>
      <path id="Path_2425" data-name="Path 2425" d="M386.2,303.867c-1.814,6.96-1.276,16.271-4.386,21.935,1.843,1.308,4.867-1.086,6.58-2.193C387.6,317.079,388.79,308.584,386.2,303.867Z" transform="translate(23.479 55.768)" fill="#fff"/>
      <path id="Path_2426" data-name="Path 2426" d="M416.647,308.418c-.829,5.162-1.767,13.633,2.926,15.354C420.807,319.21,421.393,309.393,416.647,308.418Z" transform="translate(44.204 58.529)" fill="#fff"/>
      <path id="Path_2427" data-name="Path 2427" d="M386.2,329.119c1.072-5.344-1.035-5.257,0-10.235-3.564.334-2.646,5.151-4.386,7.311C386.011,324.2,383.559,328.113,386.2,329.119Z" transform="translate(23.479 64.879)" fill="#fff"/>
      <path id="Path_2428" data-name="Path 2428" d="M418.211,319.339c.625,2.3,1.356,4.492,3.654,5.116C421.728,321.669,420.828,319.644,418.211,319.339Z" transform="translate(45.565 65.155)" fill="#fff"/>
      <path id="Path_2429" data-name="Path 2429" d="M437.157,325.919c.1-1.363.484-2.444,1.462-2.926,1.493,1.433,1.533,4.319,4.388,4.388-.765-6.814-5.14-6.615-10.237-8.042C433.259,322.506,434.071,325.35,437.157,325.919Z" transform="translate(54.4 65.155)" fill="#fff"/>
      <path id="Path_2430" data-name="Path 2430" d="M368.27,320.248c-1.488.707-1.581,2.809-1.464,5.119C369.138,326,371.41,320.4,368.27,320.248Z" transform="translate(14.355 65.707)" fill="#fff"/>
      <path id="Path_2431" data-name="Path 2431" d="M379.1,323.833a5.158,5.158,0,0,0,4.386-2.924A2.814,2.814,0,0,0,379.1,323.833Z" transform="translate(21.797 65.777)" fill="#fff"/>
      <path id="Path_2432" data-name="Path 2432" d="M423.924,322.068c-.317,1.626-1.681,3.967.731,4.388C424.97,324.83,426.334,322.491,423.924,322.068Z" transform="translate(48.625 66.811)" fill="#fff"/>
      <path id="Path_2433" data-name="Path 2433" d="M367.639,328.014c.143-2.094.092-3.99-2.193-3.655C365.3,326.452,365.356,328.348,367.639,328.014Z" transform="translate(13.522 68.178)" fill="#fff"/>
      <path id="Path_2434" data-name="Path 2434" d="M421.231,330.3c-1.284.423-4.295-.884-4.385.731,2.553,1.589,3.368,4.917,4.385,8.043,1.939.011,4.306-.406,4.39,1.461-1.724,5.532,1.9,7.761,0,12.43,1.42,3.451,6.192,3.553,7.309,7.311.8,2.682-2.942,7.2,0,7.311,4.37-9.914,6.218-19.189,8.042-28.512-4.584-.686-5.559,2.238-8.773,2.923-1.292,3.562,1.412,7.1-1.462,9.505-4.623-5.133.418-11.221,4.386-13.89-1.69-1.722-2-4.822-4.386-5.85-1.5,2.4-4.613,3.186-8.043,3.655C422.164,333.752,422.042,331.68,421.231,330.3Zm5.119,5.117c.863-.842,2.585-.827,4.386-.731,2.757,4.2-.813,6.438-4.386,3.657Z" transform="translate(44.737 71.742)" fill="#fff"/>
      <path id="Path_2435" data-name="Path 2435" d="M364.973,331.691c5.542,3.045,2.989,17.893,12.428,14.623C373.195,341.934,372.918,329.917,364.973,331.691Z" transform="translate(13.264 72.542)"/>
      <path id="Path_2436" data-name="Path 2436" d="M427.147,333.006c-1.8-.1-3.524-.111-4.386.731v2.926C426.334,339.444,429.9,337.2,427.147,333.006Z" transform="translate(48.326 73.42)"/>
      <path id="Path_2437" data-name="Path 2437" d="M358.688,354.648c.876-5.828,1.777-16.484-.729-21.2C357.647,340.514,356.194,348.795,358.688,354.648Z" transform="translate(8.581 73.713)" fill="#fff"/>
      <path id="Path_2438" data-name="Path 2438" d="M445.651,334.354c-2.347,4.883-1.607,14.526-.731,20.471C448.884,352.105,447.517,338.279,445.651,334.354Z" transform="translate(61.26 74.266)" fill="#fff"/>
      <path id="Path_2439" data-name="Path 2439" d="M360.52,334.81c-1.33,5.829-2.786,15.859.729,20.47C363.228,350.452,363.935,338.6,360.52,334.81Z" transform="translate(9.675 74.542)" fill="#fff"/>
      <path id="Path_2440" data-name="Path 2440" d="M442.514,335.265c-1.878,4.9-2.9,17.427.731,21.2C444.863,350.574,445.861,340.061,442.514,335.265Z" transform="translate(59.279 74.818)" fill="#fff"/>
      <path id="Path_2441" data-name="Path 2441" d="M417.864,351.431c1.645-1.279,4.11-1.739,5.85-2.924.837-4.494-2.544-4.769-1.464-9.505a16.467,16.467,0,0,1-4.386-1.462C420.136,342.043,416.579,348.209,417.864,351.431Z" transform="translate(45.18 76.198)" fill="#fff"/>
      <path id="Path_2442" data-name="Path 2442" d="M401.4,339.842a4.764,4.764,0,0,0,.731,3.655,2.745,2.745,0,0,0,2.924-2.924A4.758,4.758,0,0,0,401.4,339.842Z" transform="translate(35.322 77.552)"/>
      <path id="Path_2443" data-name="Path 2443" d="M382.719,345.842c1.6,2.058,4.327,2.984,7.311,3.655-1.086-2.328,0-6.819-1.462-8.773C387.168,342.981,383.635,343.1,382.719,345.842Z" transform="translate(24.031 78.131)" fill="#fff"/>
      <path id="Path_2444" data-name="Path 2444" d="M433.42,341.5c-1.414,2.73-.975,7.307-2.924,9.5,5.5,1.351,5.368-2.919,8.774-3.655.521,5.747-7.51,10.375-4.386,13.89,2.283-6.241,9.078-10.222,7.309-18.277C439.8,342.125,436.576,339.247,433.42,341.5Z" transform="translate(53.019 78.089)" fill="#fff"/>
      <path id="Path_2445" data-name="Path 2445" d="M366.855,344.82c-1.811,2.907-8.84,7.269-5.119,10.966C360.5,349.663,368.891,349.308,366.855,344.82Z" transform="translate(10.65 80.616)" fill="#fff"/>
      <path id="Path_2446" data-name="Path 2446" d="M426.059,348.005c-.392,4.481-3.035,6.715-5.119,9.5C426.324,358.836,428.71,349.9,426.059,348.005Z" transform="translate(47.221 82.548)" fill="#fff"/>
      <path id="Path_2447" data-name="Path 2447" d="M436.411,349.37c.35,2.619,1.189,4.226,0,6.58C439.661,355.977,438.829,349.793,436.411,349.37Z" transform="translate(56.608 83.376)" fill="#fff"/>
      <path id="Path_2448" data-name="Path 2448" d="M373.05,363.235v-2.924A1.562,1.562,0,1,0,373.05,363.235Z" transform="translate(16.884 89.981)" fill="#fff"/>
      <path id="Path_2449" data-name="Path 2449" d="M374.9,360.29h-1.462c-.043.447-.111.868-.733.731v1.462c.447.043.868.111.733.731H374.9c.04-.445.108-.864.731-.731v-1.462C375.187,360.981,374.768,360.913,374.9,360.29Z" transform="translate(17.957 90.002)" fill="#fff"/>
      <path id="Path_2450" data-name="Path 2450" d="M374.984,360.311v2.924A1.562,1.562,0,1,0,374.984,360.311Z" transform="translate(19.338 89.981)" fill="#fff"/>
      <path id="Path_2451" data-name="Path 2451" d="M376.8,360.29v2.924c1.925.222,2.4-1.012,2.192-2.924Z" transform="translate(20.442 90.002)" fill="#fff"/>
      <path id="Path_2452" data-name="Path 2452" d="M380.85,363.214V360.29h-2.195C378.453,362.2,378.41,363.949,380.85,363.214Z" transform="translate(21.513 90.002)" fill="#fff"/>
      <path id="Path_2453" data-name="Path 2453" d="M381.2,360.342c-.23.988-1.043,1.4-.731,2.924h2.193C382.5,361.972,383.4,359.607,381.2,360.342Z" transform="translate(22.624 89.949)" fill="#fff"/>
      <path id="Path_2454" data-name="Path 2454" d="M384.474,363.214V360.29h-2.193C382.074,362.2,382.548,363.436,384.474,363.214Z" transform="translate(23.738 90.002)" fill="#fff"/>
      <path id="Path_2455" data-name="Path 2455" d="M386.246,363.235v-2.924A1.562,1.562,0,1,0,386.246,363.235Z" transform="translate(24.89 89.981)" fill="#fff"/>
      <path id="Path_2456" data-name="Path 2456" d="M386.558,360.311c-1.218,1.452.066.93,0,2.924A1.562,1.562,0,1,0,386.558,360.311Z" transform="translate(26.041 89.981)" fill="#fff"/>
      <path id="Path_2457" data-name="Path 2457" d="M388.179,360.29v2.924c1.925.222,2.4-1.012,2.193-2.924Z" transform="translate(27.344 90.002)" fill="#fff"/>
      <path id="Path_2458" data-name="Path 2458" d="M390.017,360.29c-.2,1.666.178,2.749,1.465,2.924.228-.988,1.04-1.4.731-2.924Z" transform="translate(28.428 90.002)" fill="#fff"/>
      <path id="Path_2459" data-name="Path 2459" d="M394.03,363.214V360.29h-2.193C391.63,362.2,392.1,363.436,394.03,363.214Z" transform="translate(29.536 90.002)" fill="#fff"/>
      <path id="Path_2460" data-name="Path 2460" d="M395.832,360.29h-1.462c-.04.447-.108.868-.729.731v1.462c.443.043.864.111.729.731h1.462c.043-.445.111-.864.731-.731v-1.462C396.118,360.981,395.7,360.913,395.832,360.29Z" transform="translate(30.657 90.002)" fill="#fff"/>
      <path id="Path_2461" data-name="Path 2461" d="M395.915,360.29v2.924c1.925.222,2.4-1.012,2.193-2.924Z" transform="translate(32.038 90.002)" fill="#fff"/>
      <path id="Path_2462" data-name="Path 2462" d="M397.735,360.29v2.924c1.925.222,2.4-1.012,2.193-2.924Z" transform="translate(33.142 90.002)" fill="#fff"/>
      <path id="Path_2463" data-name="Path 2463" d="M401.78,363.214V360.29h-2.192C399.383,362.2,399.341,363.949,401.78,363.214Z" transform="translate(34.213 90.002)" fill="#fff"/>
      <path id="Path_2464" data-name="Path 2464" d="M403.584,363.214V360.29h-2.193C401.185,362.2,401.659,363.436,403.584,363.214Z" transform="translate(35.333 90.002)" fill="#fff"/>
      <path id="Path_2465" data-name="Path 2465" d="M405.388,360.29h-1.464c-.04.447-.109.868-.729.731v1.462c.445.043.864.111.729.731h1.464c.042-.445.109-.864.731-.731v-1.462C405.671,360.981,405.253,360.913,405.388,360.29Z" transform="translate(36.455 90.002)" fill="#fff"/>
      <path id="Path_2466" data-name="Path 2466" d="M407.7,363.214V360.29H405.5C405.3,362.2,405.255,363.949,407.7,363.214Z" transform="translate(37.802 90.002)" fill="#fff"/>
      <path id="Path_2467" data-name="Path 2467" d="M409.5,363.214V360.29h-2.195C407.1,362.2,407.572,363.436,409.5,363.214Z" transform="translate(38.922 90.002)" fill="#fff"/>
      <path id="Path_2468" data-name="Path 2468" d="M411.322,363.214V360.29h-2.2C408.92,362.2,409.394,363.436,411.322,363.214Z" transform="translate(40.026 90.002)" fill="#fff"/>
      <path id="Path_2469" data-name="Path 2469" d="M413.092,363.235v-2.924A1.562,1.562,0,1,0,413.092,363.235Z" transform="translate(41.179 89.981)" fill="#fff"/>
      <path id="Path_2470" data-name="Path 2470" d="M414.912,363.235v-2.924A1.562,1.562,0,1,0,414.912,363.235Z" transform="translate(42.283 89.981)" fill="#fff"/>
      <path id="Path_2471" data-name="Path 2471" d="M416.732,363.235v-2.924A1.562,1.562,0,1,0,416.732,363.235Z" transform="translate(43.388 89.981)" fill="#fff"/>
      <path id="Path_2472" data-name="Path 2472" d="M416.846,360.311v2.924A1.562,1.562,0,1,0,416.846,360.311Z" transform="translate(44.737 89.981)" fill="#fff"/>
      <path id="Path_2473" data-name="Path 2473" d="M418.665,360.29v2.924c1.927.222,2.4-1.012,2.193-2.924Z" transform="translate(45.841 90.002)" fill="#fff"/>
      <path id="Path_2474" data-name="Path 2474" d="M420.485,360.29v2.924c1.928.222,2.4-1.012,2.195-2.924Z" transform="translate(46.945 90.002)" fill="#fff"/>
      <path id="Path_2475" data-name="Path 2475" d="M422.307,360.29v2.924c1.925.222,2.4-1.012,2.192-2.924Z" transform="translate(48.051 90.002)" fill="#fff"/>
      <path id="Path_2476" data-name="Path 2476" d="M424.126,360.29v2.924c1.927.222,2.4-1.012,2.193-2.924Z" transform="translate(49.154 90.002)" fill="#fff"/>
      <path id="Path_2477" data-name="Path 2477" d="M428.171,363.214V360.29h-2.192C425.775,362.2,425.731,363.949,428.171,363.214Z" transform="translate(50.226 90.002)" fill="#fff"/>
      <path id="Path_2478" data-name="Path 2478" d="M429.992,363.214V360.29H427.8C427.6,362.2,427.551,363.949,429.992,363.214Z" transform="translate(51.331 90.002)" fill="#fff"/>
      <path id="Path_2479" data-name="Path 2479" d="M431.812,363.214V360.29h-2.193C429.416,362.2,429.373,363.949,431.812,363.214Z" transform="translate(52.435 90.002)" fill="#fff"/>
      <path id="Path_2480" data-name="Path 2480" d="M410.091,368.026c-2.076,1.848,3.956,4.435,2.193,5.849H361.837c-1.032,3.225,4.374.013,4.386,2.193v5.119c-1.53,1.992-2.747-2.589-3.655.729,2.539,1.848,3.5,5.27,6.578,6.581,2.078-1.848-3.956-4.436-2.192-5.85,1.213-1.224,4.292-.582,6.58-.731.6,1.837-1.422,6.3,1.462,5.849V375.337c5.611.482,13.153-.966,17.547.731.039.934.937,1.012.731,2.195.064,2.5-4.452.421-4.388,2.924,2.213,1.992,5.305,5.125,9.505,2.923.325,1.383-.995,4.406,1.462,3.655.365-4.02-.8-9.578.731-12.428,2.224.458,6.3-.937,7.311.731v3.657a16.388,16.388,0,0,0-4.386,1.462c-.325,3.247.408,5.44,3.654,5.116,2.339-.1,1.613-3.262,2.927-4.386h3.654c.228,2.211-.811,5.686,1.462,5.849,1.538-2.849.366-8.406.731-12.428h10.968c2.259,5.633-3.675,11.567-5.849,5.85-.6-2.794,3.524-.863,2.924-3.657-8.77-.331-4.237,11.647,2.924,7.311.166,1.3-.737,3.662,1.462,2.924.215-5.386-1.345-12.552,2.924-13.89H415.207A13.249,13.249,0,0,0,410.091,368.026Zm-36.557,11.7h-5.117v-4.388c1.941.008,4.176-.276,5.117.731Zm24.858,2.192c-1.186,1.1-5.4,1.1-6.58,0,1.967-1.518,4.648-3.45,2.924-6.58h3.655Zm6.58,0H407.9C408.552,385.319,404.021,385.665,404.972,381.916Zm8.773-2.192H409.36v-4.388h4.385Z" transform="translate(11.282 94.696)"/>
      <path id="Path_2481" data-name="Path 2481" d="M448.671,368.026c-2.828,2.6,4.041,4.349,2.195,5.849-12.688.961-29.223-1.928-39.481,1.462,3.909.476,9.734-.961,12.43.731v2.926H416.5c.55,1.687,5.175,3.056,2.195,5.847-4.6,1.192-3.247-3.575-6.58-3.654.619,4.149,3.768,6.666,8.043,5.116,1.944-2.058.024-4.179,1.461-5.847,4.052-.885,1.47,4.867,2.195,7.309,3.246-1.383.607-8.651,1.461-12.428,2.723.447,7.72-1.382,7.312,2.193.334,2.283-1.563,2.338-3.654,2.195.228,4.173,4.719,6.263,8.773,4.385-.146,2.094-.092,3.993,2.192,3.655V375.337c3.909.476,9.734-.961,12.43.731v2.926c-10.012-2.971-11.943,7.258-5.119,9.5,1.835-2.548-3.757-2.728-2.193-7.311,1.812-.638,5.669-1.428,7.312,0v6.578c3.246-1.383.607-8.651,1.461-12.428,1.3-.165,3.662.737,2.926-1.462C451.655,374.3,451.552,369.776,448.671,368.026Zm-10.964,13.89c-1.065,1.075-4.786,1.075-5.85,0,1.452-.782,4.615-3.614,2.193-5.849-.124-1.586,2.593-.331,3.657-.731Z" transform="translate(41.424 94.696)"/>
      <path id="Path_2485" data-name="Path 2485" d="M376.063,384.523c1.832-2.548-3.758-2.728-2.193-7.311,2.049-.876,5.044-.8,8.04-.731C374.782,369.929,367.086,382.187,376.063,384.523Z" transform="translate(17.528 98.67)"/>
      <path id="Path_2487" data-name="Path 2487" d="M360.08,330.008a6.566,6.566,0,0,1-1.478,1.134C359.084,331.178,359.577,330.747,360.08,330.008Z" transform="translate(9.398 71.629)"/>
      <path id="Path_2488" data-name="Path 2488" d="M356.276,272.292c1.167,5.9,5.7,8.439,10.237,10.966,2.227-.7,1.681-4.166,5.117-3.655.5,8.652-5.841,16.548-5.117,26.32.774,10.471,7.765,16.888,13.159,23.4,2.349.45,1-2.632,2.924-.731-.919,18.627,8.946,39.005-.731,53.371-.942,1.006-3.177.723-5.117.731.019,4.648-.766,8.493-5.117,8.773-.22-2.693,4.51-4.215,2.193-6.581-2.246,3.5-4.489,11.9-6.565,14.951,1.713-1.592,3.752-3.813,5.1-1.057-6.988-.434-12.791,12.108-12.43,19.008.111,2.081,2.264,3.84,2.926,5.849,2.854,8.655,3.813,21.482,16.815,18.277,2.492,2.887.874,5.792,2.924,9.5,30.24,1.144,71.207,1.269,103.816,0,2.253-3.392,2.4-6.66,0-9.5,3.014,1.817,5.142-.879,10.968,0,3.491-3.161,7.735-7.3,4.386-4.386-.95.824-5.723,6.147-8.774,2.924,13.394-6.114,11.927-10.842,18.278-24.856-5.362-6.093-3.276-19.633-12.43-21.934.554-12.41-11.843-8.985-16.083-15.354-1.78-2.675-2.65-8.607-2.924-10.966-3.389-29.219,13.195-46.488,17.547-66.53-3.376.035-2.659,4.166-6.581,3.655-5.042-2.237-2.595-10.352,2.924-10.235-.127,3.528-3.527,3.782-3.654,7.311,2.871-1.25,5.828-2.126,6.58-3.655.36-8.652-6.453-14.011-5.85-20.471,4.161.228,4.11,4.664,7.312,5.849,5.963-8.4,28.047-19.8,12.428-29.975.529,3.8,6.954,4.976,4.386,9.505-3.215-1.171-6.168-2.6-7.311-5.849,1-2.9,3.4-4.4,2.924-8.774-1.772-2.871-6.922-6.218-10.966-4.386,3.79.6,8.084.689,8.773,4.386-1.337.2-4.738,1.846-5.849,4.386,1.281.2,3.647-2.057,4.386,0,.087,3.013-5.72.132-6.58,2.193,4.459,3.1,7.568,7.544,12.428,10.237-8.948-.272-12.5-6.882-21.934-2.924.178-2.992-.71-7.049,1.462-8.043,1.886-2.428,6.04,1.755,6.58-1.462-1.957-1.7-6.939-.368-8.042-2.924-.146-5.264,6.356-3.879,7.312-8.042a12.566,12.566,0,0,0-9.5-9.5c1.5,5.223,5.606,3.337,6.58,8.773-6.552,4.171-13.045,8.4-18.277,13.89-3.255-4.036,3.586-7.4,1.462-10.235-2.635,1.1-1.96-1.861-4.388-2.193-3.549-.485-6.9,3.9-10.966,3.655,1.719-4.859,6.3-6.858,13.158-6.58.8-5.3,5.964-6.221,10.969-7.311-9.877-2.707-11.54,8.194-22.666,6.58-5.06-5.418-6.731-14.228-8.774-22.665-15.405-.479-38.841-2.82-51.906,1.462,2.06,11.146-4.859,18.391-4.386,23.4-3.639-4.248-6.268-4.486-12.43-6.58-2.661-.9-4.369-2.783-5.849-2.924-10.662-1.023-12.55,6.441-18.277,11.7-3.316,3.045-7.654,3.99-9.505,6.58-3.255,4.555-4.2,10.7-6.58,13.161C348.858,267.039,351.668,270.565,356.276,272.292Zm8.773,154.265c-2.494-5.853-1.041-14.135-.729-21.2C366.826,410.073,365.924,420.729,365.049,426.557ZM504.69,406.815c1.865,3.925,3.233,17.751-.731,20.471C503.084,421.341,502.343,411.7,504.69,406.815Zm-5.117,1.464c3.347,4.8,2.349,15.309.731,21.2C496.676,425.705,497.695,413.176,499.573,408.278ZM360.662,275.947c-2.823-.1-2.995-2.854-2.924-5.849,2.033.649,2.646,2.715,5.119,2.924C362.123,274,362.165,275.743,360.662,275.947Zm13.892,26.32c-.794-3.837-4.57-4.69-4.388-9.5,3.221-.542,3,2.365,5.119,2.924.675-4.086-3-3.826-2.193-8.043,2.715-.278,1.91,2.964,5.116,2.195-.051-4.459-6.674-7.219-2.192-11.7,2.214,3.149,3.48,7.242,5.849,10.237-3.8,5.59-4.259,12.311-7.311,19.739-3.236-1.15-5.248-3.525-5.119-8.042C372.152,299.794,371.347,303.037,374.554,302.267Zm17.547-23.4c-.2,2.482.564,5.929-.731,7.312-3.826-4.325-5.706-9.653-10.966-3.657,1.432-7.28-4.5-7.2-5.119-12.428C380.118,273.8,386.851,275.592,392.1,278.872Zm-16.816-16.815c4.608,1.586,9.711,6.234,8.042,11.7A54.153,54.153,0,0,1,375.285,262.057Zm13.159,45.328c3.721,1.041,1.679-3.681,2.195-5.849a5.159,5.159,0,0,1,2.924,4.386c-.013,2.67-2.079,3.284-2.924,5.117,1.716-.233,2.743-1.155,5.116-.731-1.444,3.455-1.788,6.143,1.462,8.043C393.2,318.7,388.444,313.485,388.444,307.385Zm5.119,19.009c-1.525-1.337-.342-6.149,2.192-5.849C396.213,323.683,395.1,325.255,393.563,326.394Zm-2.193-2.924c-4.02-.368-5.068-3.707-5.85-7.311C389.641,316.424,390.689,319.763,391.37,323.47Zm3.655-22.665c-1.849-.586-1.865-3.009-2.924-4.386,2.648-3.875,2.047-8.654,2.924-15.354,2.3-.345,1.93,1.968,3.655,2.193C397.945,289.59,396.354,295.067,395.026,300.805ZM373.092,314.7c-2.05-1.363-2.82-4-3.657-6.58C372.125,308.654,374.745,312.137,373.092,314.7Zm3.655,10.237c.342-3.511-1.536-4.8-2.924-6.58,1.081-3.252,2.828.877,5.117.731.249-3.66-2.784-4.039-2.193-8.043C384.381,312.928,382.994,322.464,376.747,324.932Zm.731-20.471c3.318-.869,4.38,2.717,6.58.731-.479-2.688-2.694-3.641-4.386-5.117.5-2.18,2.911-2.452,5.849-2.193.844-1.13-2.921-3.871-3.655-5.849.389-2.5,3.522-1.12,5.117-.731,1.062-1.827-4.237-3.538-2.924-8.043h3.655c-.329,3.742,2.821,4,2.926,7.312-.137,2.057-1.273,3.114-3.657,2.924.651,1.544,2.227,2.161,2.195,4.386-5.641,4.243-.745,11.957-5.119,16.083C384.673,307.989,377.011,310.29,377.478,304.46Zm13.892,24.127c-3.2,4.409-6.519-3.048-7.312-5.849C387.7,320.582,386.643,329.4,391.37,328.587Zm-6.581,6.58c4.126,2.453,2.658,10.5,2.924,16.815C383.9,349.211,385.093,341.444,384.789,335.167Zm8.043,46.792c.291-2.728-4.568-.309-5.119-2.193-2.037-7.021,1.253-14.564,2.195-23.4.754-7.087-1.893-14.93-.731-20.471,1.322-6.311,8.262-7.209,8.771-12.428,2.981,4.136,7.957,26.6,7.312,33.629-.909,9.939-11.4,22.784-13.159,33.632-3.267,1.419-7.881,4.457-10.237.731,1.473-1.451,1.271-4.579,2.193-6.581C388.26,385.186,391.484,384.511,392.832,381.958Zm28.513-119.9c-3.659-.243-5.546-2.253-8.043-3.655.225-3.675-.844-8.643,1.462-10.237,1.181-.206,1.26.691,2.193.731C411.524,255.934,421.706,258.236,421.346,262.057Zm-2.924-29.975c3.532-1.795,8.885.172,8.042,5.117-2.776,1.96-9.059,2.073-9.505-2.193,1.383-1.3,4.83-.532,7.311-.731C424.2,230.6,417.559,235.118,418.421,232.082Zm29.972,2.924c-1.445,2.76-5.969,4.462-9.5,2.924-1.358-4.957,4.66-9.711,7.312-5.849-3.165-.241-4.841,1.007-5.849,2.924C441.848,236.386,445.6,232.673,448.393,235.006Zm-8.771,6.58c1.975,1.094-1.268,3.051-2.193,3.655,1.028,3.091,5.313.4,5.849-1.462,1.57,2.574-4.329,3.937-7.311,4.386,3.124,1.639,7.987-1.255,9.5-3.655,2.259,3.024-3,4.774-6.58,4.386,1.61,2.033,5.211-.1,7.312,0-1.727,2.7-6.078,3.152-9.505,2.193,5.821,4.708,10.81-.413,15.354-2.924-2.548,3.013.906,13.967-6.581,12.43-.076-3.975,4.372-3.427,3.659-8.043-8.567,6.088-16.2-3.7-25.591-3.655,2.273-1.748,5.821,1.464,9.505.731-1.441-.81-3.414-1.822,0-2.193-1.579-1.587-4.269-2.066-6.58-2.924,2.086,3.209-.672-.381-1.464-1.462C427.744,243.661,437.391,247.683,439.622,241.585Zm26.318,26.32c-.731,3.9-.524,8.737-5.117,8.773-1.245-4.439-.975-11,.733-14.621,1.62-.4,1.04,1.4,2.192,1.462.729,3.652-2.269,3.578-2.192,6.58C462.772,271.967,463.519,267.245,465.941,267.906Zm0,15.352c1.984,1.994,1.82-1.891,4.388-1.462a13.668,13.668,0,0,1-3.655,6.581c-2.752-1.146-1.873-5.927-4.388-7.312,1.125-2.531,2.63-4.682,5.852-5.117C468.436,279.418,465.64,279.789,465.941,283.258Zm8.774-18.277a6.774,6.774,0,0,1-5.849,5.849C468.571,266.879,471.429,263.007,474.715,264.981Zm4.386,43.135c.058-3.842,1.865-5.932,2.924-8.773C485.7,301.366,482.2,308.064,479.1,308.116Zm7.311-2.193c2.094,2.38-.077,6.715-2.924,6.58C481.451,309.75,485.48,308.008,486.412,305.923Zm-6.58,8.773c.85-.119,1.3.162,1.462.733-.781,3.6-1.83,6.943-5.849,7.311C476.1,319.244,478.337,317.343,479.833,314.7Zm-2.923,21.934c4.123,11.981,1.6,29.995,2.192,43.136C470.419,370.589,477.508,350.879,476.91,336.629Zm-1.464-25.589c3.058,1.353-1.019,5.606-2.193,7.312C471.082,315.9,473.518,311.824,475.446,311.04Zm2.193-15.352c1.947,3.191-.2,8.551-2.924,9.5C474.207,300.54,475.625,297.815,477.639,295.688Zm-5.117,33.631a4.757,4.757,0,0,1,.731-3.655C475.43,325.727,475.208,330.022,472.522,329.318ZM469.6,324.2c-1.727-1.073-.829-5.644,2.192-4.386C472.186,322.4,469.2,321.611,469.6,324.2Zm-8.776-6.58v-1.462c.623.133.691-.286.733-.731h1.462c-.135.622.284.689.729.731v1.462c-.62-.135-.689.284-.729.731h-1.462C461.691,317.73,461.27,317.663,460.823,317.621Zm12.43,84.076c2.386,1.028,2.7,4.128,4.386,5.85-3.969,2.669-9.009,8.757-4.386,13.89,2.874-2.407.17-5.943,1.462-9.505,3.213-.685,4.189-3.609,8.773-2.923-1.824,9.322-3.671,18.6-8.042,28.512-2.942-.112.8-4.629,0-7.311-1.117-3.758-5.889-3.859-7.309-7.311,1.9-4.669-1.724-6.9,0-12.43-.084-1.867-2.45-1.449-4.39-1.461-1.017-3.127-1.832-6.454-4.385-8.043.09-1.615,3.1-.308,4.385-.731.811,1.382.933,3.454,1.462,5.117C468.64,404.883,471.757,404.1,473.253,401.7Zm-2.924-14.623c2.41.423,1.046,2.762.731,4.388C468.648,391.041,470.012,388.7,470.329,387.074Zm-9.505,24.858a16.467,16.467,0,0,0,4.386,1.462c-1.08,4.737,2.3,5.011,1.464,9.505-1.74,1.186-4.2,1.645-5.85,2.924C459.538,422.6,463.1,416.436,460.823,411.932Zm10.237,16.816c2.651,1.891.265,10.831-5.119,9.5C468.025,435.463,470.668,433.229,471.06,428.748Zm-32.17-15.354c1.167.54-.167,3.578,2.195,2.926-1.2,2.695-4.01,3.787-3.655,8.042-1.009,2.327-.725-2.584-.733-3.655-.991.227-.607,1.83-.729,2.924-1.276.029-2.254-6.5-5.849-6.58,3.782-2.489,3.231-2.288,5.116-5.119,5.4,4.7,7.979-7.282,10.968-11.7-3.032,3.061-5.219,6.968-7.312,10.966-.9.082,2.27-7.8,2.195-11.7-1.708,2.19-1.835,5.963-3.655,8.042-.9,8.866-.787-8.167-.733-11.7-1.528,2.871-.443,12.206-2.193,12.43.035-3.448-2.359-4.465-2.193-8.043-1.66,2.907,1.15,7.6,1.462,10.966-2.392-3.943-5.011-7.661-7.309-11.7.368,3.1,3.641,8.495,4.386,10.233,2.58,6.035-1.088-.681-4.386-3.655-2.084-1.877-4.52-2.738-5.849-4.386.991,1.414,13.909,15.438,8.773,10.235-4.155-1.208-7.222-3.5-10.966-5.117,1.094.913,12.391,9.542,13.159,8.774-1.171,1.171-10.412-4.777-14.623-3.657a38.338,38.338,0,0,0,10.968,3.657c-3.93,1.189-8.749,1.486-13.892,1.462,1.663-7.5,2.637-9.277,6.581-16.085,6.525-3.448,11.225-6.168,22.663-5.117-.709,3.541,2.116,1.692,3.654,1.464,1,2.169,2.23,4.1,5.119,4.385,1.032,1.239-1.184,4.221,2.924,3.655-3.488,3.821-9.693,4.93-13.89,8.042.169-.223,6.554-6.5,8.773-9.505C445.289,406.148,442.514,410.2,438.89,413.394Zm-9.5,6.581c-3.363,2.241-6.6,4.606-10.235,6.581,2.939.243,7.949-3.737,11.7-5.119-.985.586-6.663,8.853-10.966,10.964-1.085-3.451-1.213-5.325-3.659-4.385.093-4.333-1.5-6.226-2.192-9.5,4.15-1.7,11.448-.252,16.816-.731-2.768.9-10.32,3.32-15.354,4.386C418.937,423.155,425.158,420.633,429.387,419.975Zm-20.471-36.557c2.121-1.044,4.579-1.755,5.117-4.385-4.6-12.459-3.509-30.608-5.847-45.329,2.81-5.566,11-1.382,11.7,3.655,2.3-.135.935-3.938,3.654-3.655,6.025,3.617,2.145,19.291,1.462,25.587-3.707-2.871-.731-12.427-4.385-15.352-2.666,9.051,1.748,22.239,4.385,30.706-4.991.615-8.832,2.378-9.5,7.312,3.742.818,2.937-2.913,5.85-2.924,1.1,3.773,4.377,5.371,4.386,10.235-3.5.084-4.838-1.988-5.849-4.388-1.869.082-1.451,2.45-1.462,4.388-4-.593-4.383,2.441-8.043,2.193C411.965,387.657,410.188,386.133,408.916,383.419Zm-1.462-1.461c-1.035,4.978,1.072,4.891,0,10.235-2.637-1.006-.185-4.923-4.386-2.924C404.807,387.109,403.89,382.293,407.454,381.958Zm-8.773,5.847a2.814,2.814,0,0,1,4.386-2.924A5.158,5.158,0,0,1,398.681,387.805Zm4.386-8.04c3.111-5.664,2.572-14.975,4.386-21.935,2.595,4.717,1.409,13.212,2.193,19.742C407.934,378.679,404.91,381.073,403.067,379.765Zm3.655-71.649c.315,3.238-1.218,4.629-3.655,5.117C402.754,310,404.287,308.6,406.723,308.116Zm-4.386-2.193a4.761,4.761,0,0,1,.731-3.655h2.193C405.45,304.652,404.391,305.786,402.336,305.923Zm28.513-43.135c5.791,1.787,7.77-2.556,13.158-5.117-.884,2.527-1.978,4.843-1.461,8.773-5.808,1.579-12.766-2.322-16.815,1.462-2.2-1.679-4.269-6.637-2.195-10.235C427.716,257.475,427.773,261.838,430.849,262.788Zm-2.924-5.849c3.287-2.013,9.512-2.221,10.233,2.193C436.193,263.109,427.848,261.451,427.925,256.94Zm30.7,38.748c-2.225-.456-3.737-1.624-3.655-4.386C458.026,290.88,460.32,293.633,458.63,295.688ZM460.094,303c-2.375-.551-4.637-1.213-4.39-4.386Q460.266,298.438,460.094,303Zm-1.464,8.042c-2.707-.461-4.078-2.259-3.655-5.849C457.594,305.593,460.2,308.758,458.63,311.04Zm-3.655,2.924c2.527-.578,3.087.813,4.388,1.464C459.046,317.912,454.019,317.065,454.975,313.964Zm2.192,8.043c-1.5,1.517-3.707,0-3.654-2.193.622.133.691-.286.731-.731A2.743,2.743,0,0,1,457.166,322.008ZM446.931,303c2.706,2.415,5.967,4.269,6.581,8.773C449.091,311.075,447.33,307.717,446.931,303Zm5.849,14.623c-3.141-1-5.509-2.776-5.849-6.581A8.7,8.7,0,0,1,452.78,317.621Zm-6.578-21.2c2.744-.562,6.286,3.777,7.311,7.311C449.406,302.961,447.426,300.068,446.2,296.419Zm4.386,29.244c-2.792-1.107-4.094-3.7-4.386-7.311-1.4.829-4.5,2.812-4.386-.731C448.22,316.819,450.407,320.239,450.588,325.663ZM419.152,291.3c-6.523-1.327,1.146-11.284,5.116-8.774C423.344,286.234,419.027,286.547,419.152,291.3Zm12.428-8.043c.231,3.792-4.971,8.082-8.774,10.237C421.342,288.472,425.247,282.882,431.581,283.258Zm-13.89,26.32c-4.592-1.048-1.3-9.626,2.924-8.773C423.227,304.73,418.595,306.829,417.69,309.578Zm4.386,1.462c.231,4.131-2.319,5.481-5.852,5.85C416.7,313.706,419.1,309.374,422.077,311.04Zm.729,6.581c-1.542,2.842-3.3,5.472-6.581,6.58A7.688,7.688,0,0,1,422.806,317.621Zm0,5.117c3.127,2.1-1.4,7.383-4.385,8.042C417.783,326,420.6,324.673,422.806,322.739Zm-.729-25.589c4.38-.175,4.539-7.9,9.5-5.117.13,5.492-6.467,4.256-6.581,9.5C422.589,301.51,422.205,299.459,422.077,297.15Zm10.233,2.193c1.632,6.474,11.74,8.156,11.7,13.89A40.659,40.659,0,0,1,430.849,303c-1.84,3.034-3.167,6.581-6.581,8.042C424.328,304.52,426.879,300.492,432.31,299.343Zm10.968,8.042c-2.145-4.435-8.4-4.759-9.505-10.235,2.976.193,4.962,1.375,7.312,2.193.084-4.716-5.62-3.639-8.042-5.849-.529-2.235.747-2.666.729-4.386,6.687-.352,6.7,5.977,10.968,8.042C440.111,300.67,446.51,304.213,443.278,307.385ZM434.5,311.04c2.595,1.062,5.839,1.475,5.85,5.119C437.27,315.584,433.946,315.253,434.5,311.04Zm0,5.85a21.841,21.841,0,0,1-6.578,8.042C426.4,321.222,430.486,317.428,434.5,316.89Zm-4.385-5.85c3.651,2.005-1.845,6.708-5.119,6.581C425.009,313.73,428.388,313.211,430.118,311.04Zm.731,14.623c3.634,1.931-3.382,3.242-2.193,7.311C422,332.178,428.5,326.36,430.849,325.663Zm-2.193,14.621a18.334,18.334,0,0,1,7.311.731c4.105,14.385,5.877,33.838,4.386,49.716-2.28,1.372-7.857.847-10.235,0C424.448,376.047,429.93,358.788,428.656,340.284Zm10.233-9.5c-4.153-.713-4.324,5.535-7.309,3.655a3.491,3.491,0,0,1,3.654-3.655c-.421-1.285.885-4.3-.731-4.386C436.819,324.129,439.945,327.254,438.89,330.78Zm-2.923-12.428c3.339-.521,5.709,2.529,3.655,5.117C436.719,323.447,436.618,320.623,435.967,318.352Zm8.04,6.58q.511,3.432-2.923,2.924A2.077,2.077,0,1,1,444.007,324.932Zm.733-32.9c-2.143,1.75-8.341-4.711-9.505-8.774C441.446,282.662,445.063,288.526,444.74,292.032Zm-8.773-18.278c3.136-.458,4.709.652,5.849,2.193-.807,2.362-2.327,4.01-5.849,3.655C434.892,278.541,434.892,274.818,435.967,273.754Zm12.427-2.924c-.191,3.951-1,7.28-3.654,8.773C441.263,277.6,442.987,270.145,448.393,270.83Zm-16.083,8.042c-3.1,1.583-6.98-1.57-7.311-5.117-1.433,1-.394,4.48-1.462,5.849-4.266-.852-5.3-4.936-7.312-8.042C421.508,271.256,430.012,273.786,432.31,278.872Zm-12.427,14.623c-.553,2.616-1.693,4.645-4.388,5.117C414.605,294.7,416.945,291.269,419.883,293.494Zm-10.968-8.774c.614-3.042,4.668-5.717,7.309-4.386C415.377,283.141,411.917,286.41,408.916,284.72Zm1.462,35.094c.437-4.165-3.151-11.115,2.193-11.7C410.553,310.919,415.857,318.37,410.378,319.814Zm2.924,3.655c-.863,1.086-.633,3.266-2.924,2.924Q409.87,322.96,413.3,323.47Zm-5.116-18.278c-.148-4.046.794-7,5.116-6.58C412.276,301.483,411.334,304.441,408.186,305.191Zm0,16.816c.19,2.383-.869,3.519-2.926,3.655C405.069,323.279,406.128,322.144,408.186,322.008Zm-3.657-5.117a4.1,4.1,0,0,1,2.924-.731C408.206,319.143,404.041,320.059,404.529,316.89Zm4.386-21.2c-3.374-1.552,2.235-8.239,5.117-5.849C413.132,292.591,410.858,293.973,408.916,295.688ZM405.261,279.6c.455-2.224,1.624-3.737,4.386-3.655C410.068,279,407.316,281.293,405.261,279.6Zm-.731,51.909c3.276,1.33,2.372,9.16,1.462,12.428C402.982,342.318,405.219,335.451,404.529,331.511Zm43.135,29.975c-3.843,6.7,4.02,13.223,1.464,23.394,1.544,2.429,2.121-2.193,4.385-1.462A15.76,15.76,0,0,1,452.78,390c-2.049-.874-5.044-.8-8.04-.731a27.4,27.4,0,0,0,1.462-16.085c-2.362-.654-1.028,2.386-2.195,2.924-2.471-10.032,3.827-17.616,2.195-29.244-1.314,2.587-1.979,5.82-2.924,8.774-5.159-2.243-4.152-14.763-2.193-19.74,3.3.837,2.3,5.99,4.385,8.042-.5-7.524.909-15.031,9.505-15.352,1.08,2.82,2.275,5.524,2.192,9.5,1.811-1.115-.153-6,2.927-5.849.185,10.907-.239,21.207-3.657,28.513-2.526-3.816.252-12.177.729-17.546-7.454,9.87-2.134,22.763-1.462,35.824a94,94,0,0,1,5.852,10.235C453.222,386.6,449.848,372.732,447.664,361.487Zm13.892,21.2c2.617.305,3.517,2.33,3.654,5.116C462.912,387.182,462.181,384.989,461.556,382.689Zm0-2.193c-4.693-1.721-3.755-10.192-2.926-15.354C463.376,366.117,462.79,375.935,461.556,380.5Zm2.192-87c-2.924.487-2.937-1.934-2.924-4.386C463.747,288.62,463.764,291.043,463.747,293.494Zm1.462,5.117c-1.5,1.517-3.708,0-3.654-2.193C463.649,296.274,465.545,296.327,465.21,298.612Zm-2.192,13.89c-1.287-.175-1.666-1.258-1.462-2.924h2.192C464.059,311.107,463.248,311.516,463.018,312.5Zm-1.462-10.235c.623.133.691-.286.729-.731a2.745,2.745,0,0,1,2.924,2.924C463.706,305.977,461.5,304.457,461.556,302.267Zm5.117,12.428c2.878,1.449.2,9.256,0,12.43C461.7,324.169,465.693,319.4,466.673,314.7Zm1.464-21.2c2.69-.673,1.327,3.856.729,4.386C466.863,297.865,467.131,294.433,468.137,293.494Zm.729,19.008c1.7-3.479.741-7.131,1.462-10.235C474.288,303.222,472.97,312.894,468.867,312.5Zm2.193-13.159a9.083,9.083,0,0,1,1.462-6.58C475.562,293.146,473.635,299.843,471.06,299.343Zm-2.193-8.042c-.082-2.764,1.428-3.932,3.655-4.386C472.6,289.677,471.09,290.845,468.867,291.3Zm-7.311-5.117c-2.764.082-3.932-1.432-4.39-3.657C459.989,282.385,461.371,283.688,461.556,286.184Zm-5.119-8.774c1.157.061,2.789-.352,2.926.731C460.16,280.708,454.877,280.1,456.437,277.409Zm.729,11.7c-2.518-.109-4.4-3.279-2.923-5.119C456.763,284.1,458.64,287.268,457.166,289.108Zm-2.923,8.042q-6.078-.5-6.58-6.58A7.682,7.682,0,0,1,454.244,297.15Zm-2.193-13.892c-2.293-.5-.953-1.949-.731-3.655,1.181-.2,1.258.691,2.193.731C454.044,282.329,452.06,281.805,452.05,283.258Zm.729,6.581c-3.708-1.655-8.429-2.293-8.773-7.312C447.664,284.232,451.869,285.39,452.78,289.839ZM425,246.7c2.556-1.575,2.714,1.183,6.581,0C430.758,249.658,426.606,247.355,425,246.7Zm5.85,4.386c-2.213,1.689-4.007,3.792-8.043,3.655-1.716-.718-1.732-3.14-2.923-4.385C421.64,249.606,426.4,252.1,430.849,251.089Zm-12.428,16.085a30.616,30.616,0,0,1-5.85,6.58c-2.693-2.913-4.692-6.52-7.311-9.5,1.6-.718,4.873,1.869,7.311-.731C412.616,266.641,416.244,266.181,418.421,267.174Zm-8.774-4.386c-2.944-.71-4.118-3.194-5.849-5.117.175-2.993,3.053-3.286,5.849-3.657.5,2.182.887,4.476,2.924,5.119C411.832,260.588,411.308,262.256,409.647,262.788Zm-2.924,23.4c-1.027,1.411-.4,4.475-3.655,3.655Q402.817,285.932,406.723,286.184Zm-2.193,7.311c1.954,1.3,0,4.822-2.193,4.386C401.7,295.051,404.121,295.28,404.529,293.494Zm-2.924,27.782c-1.55-.586-2.852-3.009-1.462-4.386C402.608,317.591,403.7,319.686,401.605,321.277ZM380.4,384.15c3.14.153.868,5.752-1.464,5.119C378.823,386.958,378.916,384.857,380.4,384.15Zm-3.657,6.581c2.285-.334,2.336,1.562,2.193,3.655C376.657,394.721,376.6,392.825,376.747,390.731Zm-8.773,16.816c3.414,3.79,2.707,15.642.729,20.47C365.188,423.406,366.644,413.376,367.975,407.547Zm2.192,27.049c-3.721-3.7,3.308-8.059,5.119-10.966C377.321,428.118,368.929,428.473,370.166,434.6Zm17.547,16.815a1.562,1.562,0,1,1,0-2.924Zm3.657-.731c-.623-.133-.691.286-.731.731h-1.462c.135-.62-.286-.688-.733-.731v-1.462c.622.137.689-.284.733-.731h1.462c-.135.623.284.691.731.731Zm.731.731v-2.924A1.562,1.562,0,1,1,392.1,451.411Zm2.924,0v-2.924h2.192C397.424,450.4,396.951,451.633,395.026,451.411Zm5.118,0c-2.441.734-2.4-1.014-2.195-2.924h2.195Zm2.924,0h-2.193c-.312-1.526.5-1.936.731-2.924C403.8,447.751,402.9,450.116,403.067,451.411Zm2.924,0c-1.926.222-2.4-1.012-2.193-2.924h2.193Zm2.924,0a1.562,1.562,0,1,1,0-2.924Zm-16.083-27.049c-1.139,1.056-1.444,2.944-4.388,2.195-3.046-.122-2.815-3.522-5.117-4.388-2.147,5.162-8.654,5.966-8.042,13.89-5.224-2.677.045-8.267,2.923-9.5-2.407-6.83,3.355-14.538-1.461-21.2-1.335,1.726,1,4.894-.731,7.311-4.8-1.9-1.632-12.136,1.462-13.158,9.64.106,7.526,11.969,13.161,16.083,5.526-2.333,8.5,1.522,14.621.731,1.395-7.624,3.5-14.533,10.235-16.815.62,5.5-8.418,7.659-6.58,16.815a21.828,21.828,0,0,0-6.58,4.386c-.781,9.072,12.046,8.416,9.5,16.815C409.69,428.947,398.546,429.372,392.832,424.362Zm19.008,1.462c-2.984-.672-5.715-1.6-7.311-3.655.916-2.743,4.449-2.862,5.849-5.117C411.835,419,410.754,423.5,411.84,425.824Zm-1.462,25.587c.066-1.994-1.218-1.472,0-2.924A1.562,1.562,0,1,1,410.378,451.411Zm2.924,0v-2.924H415.5C415.7,450.4,415.227,451.633,413.3,451.411Zm4.388,0c-1.287-.175-1.666-1.258-1.465-2.924h2.2C418.73,450.015,417.918,450.423,417.69,451.411Zm3.655,0c-1.926.222-2.4-1.012-2.193-2.924h2.193ZM425,450.68c-.62-.133-.688.286-.731.731h-1.462c.135-.62-.286-.688-.729-.731v-1.462c.622.137.689-.284.729-.731h1.462c-.135.623.286.691.731.731Zm.733.731v-2.924h2.193C428.131,450.4,427.657,451.633,425.732,451.411Zm2.924,0v-2.924h2.193C431.055,450.4,430.581,451.633,428.656,451.411Zm5.116,0c-2.439.734-2.4-1.014-2.192-2.924h2.192Zm-3.654-12.428c-.787-.162-1.308-2.484-2.193-2.924-1.033-.513-2.992.352-3.657,0-1.147-.609-.737-4.055-3.654-2.193,2.87-4.441,7.8-6.821,10.966-10.966-.092,2.364-3.765,7.434-5.117,10.966,2.751-2.609,4.562-6.16,6.58-9.5.985.225-2.047,8.519-2.193,12.428a38.292,38.292,0,0,0,3.654-10.966c1.477,3.641,1.547,8.691,1.464,13.89C434.036,436.718,432.434,439.46,430.118,438.983Zm6.578,12.428c-1.925.222-2.4-1.012-2.193-2.924H436.7Zm3.657-.731c-.622-.133-.689.286-.731.731h-1.464c.135-.62-.284-.688-.729-.731v-1.462c.62.137.689-.284.729-.731h1.464c-.135.623.283.691.731.731Zm2.924.731c-2.441.734-2.4-1.014-2.193-2.924h2.193Zm2.924,0c-1.928.222-2.4-1.012-2.195-2.924H446.2Zm2.926,0c-1.928.222-2.4-1.012-2.2-2.924h2.2Zm-.734-15.352c-3.225.527-4.87-.072-6.578,2.924-2.425-.771-3.173-2.166-4.386.731-1.461-2.944-.874-10.114,0-13.158a38.365,38.365,0,0,1,3.655,10.964c.723-4.369-1.512-8.709-1.462-11.7.059-3.683,1.22,1.47,2.193,2.924,1.395,2.087,3.861,4.216,4.386,6.58.156-2.608-3.239-7.958-5.117-10.966,2.616,1.051,8.379,5.257,10.235,9.5C449.95,432.431,447.8,433.443,448.393,436.059Zm3.657,15.352a1.562,1.562,0,1,1,0-2.924Zm2.924,0a1.562,1.562,0,1,1,0-2.924Zm2.924,0a1.562,1.562,0,1,1,0-2.924Zm0-28.512a3.449,3.449,0,0,0-2.195-.731c3.427,2.3-2.235,2.1,0,5.849-2.126-1.049-.819-.561-.729,1.461-3.024-.19-2.94.869-2.195,2.924-2.829-.318-15.131-16.026-10.233-10.233,4.153,1.207,7.221,3.5,10.966,5.117-3.583-2.751-6.825-5.847-11.7-7.311,2.616-.646,8.137,2.082,12.428,2.193-3.376-1.5-6.551-3.2-10.966-3.655.148-1.579,9.395-.336,13.159-.731-3.5-1.128-7.9-1.359-12.43-1.462.27-.734,6.075-2.192,8.773-2.926-2.182-1.9-5.781,1.009-8.773.731,3.737-2.6,6.994-5.68,11.7-7.311-1.4,2.576.72,3.524,2.195,5.117-1.78,3.138-.705,2.4.731,5.119-.572.737-.458,1.825-2.193,2.924C456.446,421.428,458.432,420.9,457.9,422.9Zm1.464,28.512v-2.924A1.562,1.562,0,1,1,459.363,451.411Zm2.923,0v-2.924h2.193C464.686,450.4,464.212,451.633,462.285,451.411Zm2.924,0v-2.924H467.4C467.61,450.4,467.138,451.633,465.21,451.411Zm2.927,0v-2.924h2.192C470.536,450.4,470.062,451.633,468.137,451.411Zm2.923,0v-2.924h2.193C473.459,450.4,472.986,451.633,471.06,451.411Zm5.116,0c-2.439.734-2.4-1.014-2.192-2.924h2.192Zm2.926,0c-2.441.734-2.4-1.014-2.192-2.924H479.1Zm2.924,0c-2.439.734-2.4-1.014-2.193-2.924h2.193Zm8.773-13.89c1.189-2.354.35-3.961,0-6.58C493.217,431.364,494.049,437.548,490.8,437.521Zm-5.116,0c-3.124-3.516,4.907-8.143,4.386-13.89-3.406.736-3.278,5.007-8.774,3.655,1.949-2.2,1.51-6.774,2.924-9.5,3.156-2.251,6.38.627,8.773,1.462C494.761,427.3,487.966,431.28,485.683,437.521Zm9.5-46.79c-2.855-.069-2.9-2.955-4.388-4.388-.979.482-1.363,1.563-1.462,2.926-3.087-.569-3.9-3.413-4.386-6.58C490.047,384.116,494.422,383.917,495.187,390.731Zm-9.5,1.462c-3.737.567-1.864-4.473-4.388-5.119-1.608.829-.05,4.823-2.193,5.119-13.873-13.625-20.165-34.392-16.816-65.068,18.592,7.19,7.407,37.037,14.625,54.1C480.748,383.581,486.876,387.2,485.683,392.193Zm-8.773-59.22c-.1-1.8-.112-3.522.729-4.386,1.53-.31,1.936.5,2.924.731Q480.814,333.225,476.91,332.974Zm4.385-7.311c.488-2.924,1.814-5.01,2.924-7.311,1.183-.207,1.26.689,2.193.731C485.074,321.641,484.656,325.123,481.295,325.663Zm10.966-16.085c-.249,3.651-4.063,3.736-2.924,8.774C484.5,317.059,489.108,309.8,492.261,309.578Zm-6.578-23.394c1.064,4.5-5,4.859-2.926,8.042,3.548.138,2.3-4.525,5.85-4.386C490.292,305.281,469.448,289.012,485.683,286.184Zm.729-11.7c1.416,1.7-.257,6.535-.729,8.773C482.5,281.784,484.759,275.711,486.412,274.485Zm-5.849,1.462c-1.07-4.864,4.012-9.534,8.043-11.7C487.837,270.062,483.713,272.515,480.564,275.947Zm23.4-5.849c1,2.314.159,2.444,0,5.117-3.768-.861-5.726-3.533-8.773-5.117C497.473,267.86,500.845,270.74,503.959,270.1ZM490.8,264.25c2.712.517,3.138-1.248,5.85-.731.209,3.866-3.445,3.867-4.388,6.58,1.435,4.287,11.038,3.912,8.774,9.5-6,.149-6.18-5.519-10.966-6.58A30.509,30.509,0,0,1,490.8,264.25Zm-.729,23.394c-2.227-.058-1.714-4.778-.733-5.849C491.565,281.855,491.051,286.576,490.069,287.644ZM487.145,248.9c.649.325,1.306.643,1.462,1.464-.872,3.512-5.975,2.8-5.119,8.042C476.667,256.191,484.434,250.474,487.145,248.9Zm-9.505,13.161c1.846-1.224,3.266-2.87,5.849-1.462,2.336-.831,1.877-4.459,3.657-5.85,1.486.705,1.578,2.809,1.462,5.119-1.941,3.178-8.331,1.907-7.312,8.042C478.587,267.444,477.22,265.646,477.639,262.057Zm0,8.042c1.2,4.852-3.874,3.437-4.386,6.58.545,1.649,4.1.286,5.849.731-.006,3.162-3.448,2.889-4.386,5.117,1.785,1.971,4.766-1.04,8.042,0-1.375,2.767-4.78,3.5-5.117,7.312-5.439-1.385-3.454-10.193-8.04-12.43C471.029,273.725,472.935,270.513,477.639,270.1Zm-1.464-12.428c-.914,4.444-6.846,3.874-9.5,6.58C465.925,258.615,471.584,255.53,476.176,257.671Zm-1.461-13.892c-1.292,4.8-5.68,6.507-10.968,7.311C464.125,245.374,470.745,245.9,474.715,243.779Zm-.731,6.581c1.51,3.935-8.125,9.022-10.966,4.385C467.16,253.769,469.252,250.744,473.984,250.36Zm-12.428,7.311c1.925-.22,2.4,1.012,2.192,2.924C461.823,260.815,461.349,259.583,461.556,257.671ZM441.815,216c1.6.108,1.57,1.843,1.462,3.657,4.337-.05,5.394-3.377,10.966-2.195-1.505,5.787,4.811,10.254.731,13.892-2.415-3.191-5.853-5.357-9.505-7.311-.23-2.913,3.384-1.979,3.659-4.386-3.233.207-5.871,3.991-9.505,1.461C438.878,217.933,441.134,217.753,441.815,216Zm-14.621,1.462c1.867.082,1.451,2.449,1.462,4.386C426.013,222.539,427.636,218.966,427.194,217.459Zm-21.934,14.623c1.621-.4,1.041,1.4,2.193,1.462,1.645-.3-.109-4.009,2.193-3.655-4.189-5.055-.1-5.7-2.924-11.7,4.74-1.875,10.656.908,13.161,3.655,2.034.331-.575-3.985,1.462-3.655,7.966,5.622-7.487,4.6-10.237,6.581,3.973,4.8,14.49,2.182,13.89-5.85,1.179.469.429,6.241,5.119,4.388,2.233-1.353-.844-3.474,0-5.85,2.764-.625,2.587,3.275,1.462,4.386.739,1.211,3.1.794,4.386,1.464,2.428-1.322-2.224-5.481,2.192-5.119.588,2.537-1.088,2.812-.729,5.119,6.7,1.833,12.669,4.39,15.351,10.235,11.03-1.281,6.464,13.034,8.043,21.2-1.395.313-1.321,2.09-3.657,1.464.614,8.606.3,13.8-6.578,17.546-.362-2.563-1.091-4.758-.731-8.042,6.559-.228,3.4-6.551,3.655-10.968.37-6.278,5.45-14.51.731-19.739-.157,3.546.1,9.8-5.85,9.5.535-1.994-1.453-1.472-1.462-2.924-.384-3.551,3.109-3.228,2.926-6.58-.323-7.386-12.778-7.405-13.89-.731-.631,3.556,2.092,3.757,1.462,7.311-1.968,1.91-6.8,1.91-8.773,0,6.012-12.179-12.364-14.572-15.354-5.117,1.427,1.984,5.283,1.539,6.581,3.655,1.526,2.635-3.583,3.946-4.388,6.58a13.227,13.227,0,0,1-5.849-8.042c-1.867.082-1.452,2.449-1.461,4.386C402.568,243.266,401.835,234.718,405.261,232.082Zm-2.193,10.966c2.073,1.094,2.309,4.026,6.58,2.924.511,4.613-3.544,7.875-5.849,7.311C404.517,249.126,400.985,246.237,403.067,243.048ZM392.1,239.392c-2.73.292-4.29-.583-4.388-2.924C390.348,236.27,392.771,236.285,392.1,239.392Zm8.773,5.849c-.909,3.019-2.126-.276-3.657-.731.844,4.764,3.774,7.438,4.388,12.43-3.532.363-3.718-2.619-3.657-5.85-1.819-1.764-8.6-3.774-10.235-8.042C391.465,239.079,398.4,241.807,400.874,245.241Zm.731,19.009c-2.759-.169-3.945-1.9-3.657-5.117C401.081,258.925,401.181,261.748,401.605,264.25Zm-5.119-5.849c-2.939-3.156-8.244-3.94-8.773-9.505C393.522,248.813,398.024,253.538,396.486,258.4Zm-8.042-2.193c3.291,1.727,8.895,4.557,7.311,8.773-3.127-1.258-5.032-3.741-8.042-5.117A4.771,4.771,0,0,1,388.444,256.208Zm10.968,10.235c4.215,2.743,5,12.656-.731,14.621-.612-1.579-1.893-2.494-1.464-5.117a4.765,4.765,0,0,1,3.657-.731,7.9,7.9,0,0,0-3.657-4.386c-2.862.551-1.533,5.291-2.923,7.311-4.279-3.231-11.675-6.575-8.774-14.621C391.852,262.917,393.11,269.2,399.412,266.443Zm-15.354-32.169c2.331,2.5,3.344,10.044.731,13.159-.794,4.059,2.7,8.382-2.193,8.774.758,1.872,2.635,5.039.731,7.311-2-2.14-5.005-3.281-7.311-5.117q.933-1.627,3.655-1.462c-.032-2.4-3.125-1.75-2.924-4.388,1.538-.656,3.25-1.136,4.386-2.192.233-2.915.04-5.4-1.462-6.581-1.729,2.171.652,8.451-4.386,7.311,1.779-7.629-5.2-6.494-8.042-9.5C369.31,235.751,377.808,233.623,384.058,234.275Zm-10.235,13.89c-1.035,2.135-4.017,2.322-5.849,3.657,1.2,1.234,3.965.906,5.117,2.192,2.272,11.766,1.207,25.9-9.505,27.051-2.921-5.67,5.646-4.679,6.58-8.773.334-3.5-.792-5.542-2.923-6.58-1.947,2.161,2.714,2.148,1.461,5.849-2.315-1.827-4.748-3.536-4.385-8.042,1.534-1.632,5.363-.972,6.58-2.924-3.774-.819-7.346-2.494-10.968-1.462,3.749,3.615-1.75,9.383-5.847,7.311,3.443-4.11,4-11.106,8.773-13.892.309-2.5-2.19-2.2-2.926-3.655-2.341.339-2.577,2.784-5.117,2.926C357.423,244.768,368.249,242.607,373.823,248.165Zm-16.085,6.58c-1.279,4.814-3.532,8.654-8.04,10.237C347.93,260.066,353.364,253.454,357.738,254.745Z" transform="translate(2.221 1.805)"/>
      <path id="Path_2489" data-name="Path 2489" d="M389.634,224.295c-1.885,1.308-4.61,5.591-3.655,7.311C387.355,230.061,390.252,223.051,389.634,224.295Z" transform="translate(25.889 7.399)"/>
      <path id="Path_2490" data-name="Path 2490" d="M396.011,232.981c.792,1.081,3.549,4.671,1.464,1.462,2.31.858,5,1.337,6.58,2.924-3.414.371-1.441,1.383,0,2.193-3.684.733-7.232-2.479-9.505-.731,9.393-.04,17.023,9.743,25.591,3.655.713,4.616-3.734,4.068-3.659,8.043,7.487,1.538,4.033-9.417,6.581-12.43-4.544,2.511-9.533,7.632-15.354,2.924,3.427.959,7.778.509,9.505-2.193-2.1-.1-5.7,2.033-7.312,0,3.581.387,8.839-1.363,6.58-4.386-1.515,2.4-6.379,5.294-9.5,3.655,2.982-.45,8.88-1.812,7.311-4.386-.535,1.861-4.82,4.553-5.849,1.462.925-.6,4.168-2.561,2.193-3.655C408.4,237.617,398.755,233.595,396.011,232.981Z" transform="translate(31.209 11.871)" fill="#fff"/>
      <path id="Path_2491" data-name="Path 2491" d="M402.04,234.893c-3.867,1.183-4.025-1.575-6.581,0C397.066,235.545,401.218,237.848,402.04,234.893Z" transform="translate(31.761 13.615)" fill="#fff"/>
      <path id="Path_2492" data-name="Path 2492" d="M429.575,337.119c-4.108.566-1.893-2.417-2.924-3.655-2.889-.281-4.121-2.216-5.119-4.385-1.538.228-4.362,2.078-3.654-1.464-11.438-1.051-16.138,1.669-22.663,5.117-3.945,6.808-4.918,8.59-6.581,16.085,5.143.024,9.962-.273,13.892-1.462a38.338,38.338,0,0,1-10.968-3.657c4.211-1.12,13.452,4.828,14.623,3.657-.768.768-12.065-7.862-13.159-8.774,3.744,1.615,6.811,3.909,10.966,5.117,5.137,5.2-7.781-8.821-8.773-10.235,1.329,1.648,3.765,2.51,5.849,4.386,3.3,2.974,6.967,9.69,4.386,3.655-.746-1.738-4.018-7.132-4.386-10.233,2.3,4.035,4.917,7.753,7.309,11.7-.312-3.361-3.122-8.059-1.462-10.966-.165,3.578,2.229,4.6,2.193,8.043,1.75-.223.665-9.558,2.193-12.43-.055,3.532-.169,20.565.733,11.7,1.82-2.079,1.947-5.852,3.655-8.042.076,3.9-3.1,11.777-2.195,11.7,2.094-4,4.28-7.905,7.312-10.966-2.988,4.415-5.572,16.4-10.968,11.7-1.885,2.831-1.334,2.63-5.116,5.119,3.594.08,4.573,6.609,5.849,6.58.122-1.094-.262-2.7.729-2.924.008,1.072-.276,5.982.733,3.655-.355-4.255,2.452-5.347,3.655-8.042-2.362.652-1.028-2.386-2.195-2.926,3.625-3.2,6.4-7.246,10.968-9.505-2.219,3.009-8.6,9.282-8.773,9.505C419.882,342.049,426.087,340.94,429.575,337.119Zm-19.74,13.892a4.764,4.764,0,0,1-.731-3.655,4.758,4.758,0,0,1,3.655.731A2.745,2.745,0,0,1,409.835,351.011Z" transform="translate(27.62 70.038)" fill="#fff"/>
      <path id="Path_2493" data-name="Path 2493" d="M422.894,344.591c-1.436-2.715-2.511-1.981-.731-5.119-1.475-1.594-3.594-2.542-2.195-5.117-4.7,1.631-7.96,4.713-11.7,7.311,2.992.278,6.591-2.629,8.773-.731-2.7.734-8.5,2.192-8.773,2.926,4.528.1,8.927.334,12.43,1.462-3.765.4-13.011-.848-13.159.731,4.415.458,7.59,2.158,10.966,3.655-4.292-.111-9.812-2.839-12.428-2.193,4.872,1.464,8.114,4.56,11.7,7.311-3.745-1.616-6.813-3.911-10.966-5.117-4.9-5.792,7.4,9.915,10.233,10.233-.745-2.055-.829-3.114,2.195-2.924-.09-2.021-1.4-2.51.729-1.461-2.235-3.745,3.427-3.551,0-5.849a3.449,3.449,0,0,1,2.195.731c.533-2-1.452-1.472-1.462-2.924C422.436,346.416,422.322,345.328,422.894,344.591Z" transform="translate(37.957 74.266)" fill="#fff"/>
      <path id="Path_2494" data-name="Path 2494" d="M407.186,345.275c1.878,3.008,5.273,8.358,5.117,10.966-.525-2.364-2.992-4.492-4.386-6.58-.974-1.454-2.134-6.607-2.193-2.924-.05,2.989,2.185,7.328,1.462,11.7a38.365,38.365,0,0,0-3.655-10.964c-.874,3.043-1.461,10.214,0,13.158,1.213-2.9,1.962-1.5,4.386-.731,1.708-3,3.353-2.4,6.578-2.924-.6-2.616,1.557-3.628,2.926-2.193C415.565,350.532,409.8,346.326,407.186,345.275Z" transform="translate(36.119 80.892)" fill="#fff"/>
      <path id="Path_2495" data-name="Path 2495" d="M392.406,351.006a21.828,21.828,0,0,1,6.58-4.386c-1.838-9.155,7.2-11.315,6.58-16.815-6.735,2.282-8.84,9.191-10.235,16.815-6.12.791-9.1-3.064-14.621-.731-5.635-4.115-3.52-15.977-13.161-16.083-3.095,1.022-6.265,11.26-1.462,13.158,1.735-2.417-.6-5.585.731-7.311,4.815,6.666-.946,14.374,1.461,21.2-2.878,1.236-8.146,6.825-2.923,9.5-.612-7.924,5.9-8.728,8.042-13.89,2.3.866,2.071,4.266,5.117,4.388,2.944.749,3.249-1.139,4.388-2.195,5.714,5.01,16.858,4.586,19.008,13.159C404.452,359.422,391.625,360.078,392.406,351.006Zm-26.32-18.278c7.945-1.774,8.222,10.243,12.428,14.623C369.075,350.62,371.628,335.772,366.086,332.728Z" transform="translate(12.151 71.505)" fill="#fff"/>
      <path id="Path_2496" data-name="Path 2496" d="M408.082,361.18c.084-5.2.013-10.249-1.464-13.89a38.292,38.292,0,0,1-3.654,10.966c.146-3.909,3.178-12.2,2.193-12.428-2.018,3.344-3.829,6.895-6.58,9.5,1.353-3.532,5.026-8.6,5.117-10.966-3.165,4.145-8.1,6.525-10.966,10.966,2.916-1.862,2.507,1.584,3.654,2.193.665.352,2.624-.513,3.657,0,.885.44,1.406,2.762,2.193,2.924C404.549,360.926,406.151,358.183,408.082,361.18Z" transform="translate(30.105 80.34)" fill="#fff"/>
      <path id="Path_2497" data-name="Path 2497" d="M388.634,341.957c.689,3.278,2.285,5.17,2.192,9.5,2.445-.94,2.574.934,3.659,4.385,4.3-2.111,9.981-10.378,10.966-10.964-3.749,1.382-8.758,5.362-11.7,5.119,3.631-1.975,6.872-4.34,10.235-6.581-4.229.657-10.45,3.18-13.892,2.193,5.034-1.067,12.586-3.488,15.354-4.386C400.082,341.7,392.784,340.259,388.634,341.957Z" transform="translate(27.62 78.361)" fill="#fff"/>
      <path id="Path_2498" data-name="Path 2498" d="M395.23,345.415c.011-1.938-.406-4.306,1.462-4.388,1.011,2.4,2.352,4.472,5.849,4.388-.01-4.864-3.287-6.462-4.386-10.235-2.913.011-2.108,3.742-5.85,2.924.672-4.934,4.513-6.7,9.5-7.312-2.637-8.468-7.05-21.656-4.385-30.706,3.654,2.926.678,12.481,4.385,15.352.683-6.3,4.563-21.971-1.462-25.587-2.719-.283-1.353,3.52-3.654,3.655-.7-5.037-8.887-9.221-11.7-3.655,2.338,14.721,1.245,32.871,5.847,45.329-.538,2.63-3,3.34-5.117,4.385,1.273,2.714,3.05,4.239,1.462,8.043C390.847,347.856,391.226,344.822,395.23,345.415Z" transform="translate(25.412 45.659)" fill="#fff"/>
    </g>
  </g>
</svg>
